<?xml version='1.0' encoding='utf-8'?>
<svg width="141.40mm" height="171.09mm" viewBox="0.0 0.0 141.40 171.09" xmlns="http://www.w3.org/2000/svg" xmlns:dc="http://purl.org/dc/elements/1.1/" xmlns:cc="http://creativecommons.org/ns#" xmlns:rdf="http://www.w3.org/1999/02/22-rdf-syntax-ns#" xmlns:svg="http://www.w3.org/2000/svg" xmlns:xlink="http://www.w3.org/1999/xlink" xmlns:inkscape="http://www.inkscape.org/namespaces/inkscape">
<!--
BasedBox - Fully closed box on a base


This box is more of a building block than a finished item.
Use a vector graphics program (like Inkscape) to add holes or adjust the base
plate. The width of the "brim" can also be adjusted with the **edge_width**
 parameter in the **Finger Joints Settings**.
 
See ClosedBox for variant without a base.



Created with Boxes.py (https://festi.info/boxes.py)
Creation date: 2023-03-15 19:02:44
Command line (remove spaces between dashes): boxes BasedBox - -x=50 - -y=50 - -h=30 - -outside=0 - -thickness=3.18 - -labels=0 - -burn=0.11
Url: http://www.festi.info/boxes.py/BasedBox?FingerJoint_angle=90.0&FingerJoint_style=rectangular&FingerJoint_surroundingspaces=2.0&FingerJoint_bottom_lip=0.0&FingerJoint_edge_width=1.0&FingerJoint_extra_length=0.0&FingerJoint_finger=2.0&FingerJoint_play=0.0&FingerJoint_space=2.0&FingerJoint_width=1.0&x=50&y=50&h=30&outside=0&thickness=3.18&format=svg&tabs=0.0&qr_code=0&debug=0&labels=0&reference=100&inner_corners=loop&burn=0.11&language=en&render=2
Url short: http://www.festi.info/boxes.py/BasedBox?x=50&y=50&h=30&outside=0&thickness=3.18&labels=0&burn=0.11
SettingsUrl: http://www.festi.info/boxes.py/BasedBox?FingerJoint_angle=90.0&FingerJoint_style=rectangular&FingerJoint_surroundingspaces=2.0&FingerJoint_bottom_lip=0.0&FingerJoint_edge_width=1.0&FingerJoint_extra_length=0.0&FingerJoint_finger=2.0&FingerJoint_play=0.0&FingerJoint_space=2.0&FingerJoint_width=1.0&x=50&y=50&h=30&outside=0&thickness=3.18&format=svg&tabs=0.0&qr_code=0&debug=0&labels=0&reference=100&inner_corners=loop&burn=0.11&language=en&render=2
SettingsUrl short: http://www.festi.info/boxes.py/BasedBox?x=50&y=50&h=30&outside=0&thickness=3.18&labels=0&burn=0.11
-->
<title>BasedBox</title>
<metadata>
<rdf:RDF><cc:Work>
<dc:title>Box - BasedBox</dc:title>
<dc:date>2023-03-15 19:02:44</dc:date>
<dc:source>http://www.festi.info/boxes.py/BasedBox?FingerJoint_angle=90.0&amp;FingerJoint_style=rectangular&amp;FingerJoint_surroundingspaces=2.0&amp;FingerJoint_bottom_lip=0.0&amp;FingerJoint_edge_width=1.0&amp;FingerJoint_extra_length=0.0&amp;FingerJoint_finger=2.0&amp;FingerJoint_play=0.0&amp;FingerJoint_space=2.0&amp;FingerJoint_width=1.0&amp;x=50&amp;y=50&amp;h=30&amp;outside=0&amp;thickness=3.18&amp;format=svg&amp;tabs=0.0&amp;qr_code=0&amp;debug=0&amp;labels=0&amp;reference=100&amp;inner_corners=loop&amp;burn=0.11&amp;language=en&amp;render=2</dc:source>
<dc:source>http://www.festi.info/boxes.py/BasedBox?x=50&amp;y=50&amp;h=30&amp;outside=0&amp;thickness=3.18&amp;labels=0&amp;burn=0.11</dc:source>
<dc:description>Fully closed box on a base

This box is more of a building block than a finished item.
Use a vector graphics program (like Inkscape) to add holes or adjust the base
plate. The width of the "brim" can also be adjusted with the **edge_width**
 parameter in the **Finger Joints Settings**.
 
See ClosedBox for variant without a base.


Created with Boxes.py (https://festi.info/boxes.py)
Command line: boxes BasedBox --FingerJoint_angle=90.0 --FingerJoint_style=rectangular --FingerJoint_surroundingspaces=2.0 --FingerJoint_bottom_lip=0.0 --FingerJoint_edge_width=1.0 --FingerJoint_extra_length=0.0 --FingerJoint_finger=2.0 --FingerJoint_play=0.0 --FingerJoint_space=2.0 --FingerJoint_width=1.0 --x=50 --y=50 --h=30 --outside=0 --thickness=3.18 --format=svg --tabs=0.0 --qr_code=0 --debug=0 --labels=0 --reference=100 --inner_corners=loop --burn=0.11
Command line short: boxes BasedBox --x=50 --y=50 --h=30 --outside=0 --thickness=3.18 --labels=0 --burn=0.11
Url: http://www.festi.info/boxes.py/BasedBox?FingerJoint_angle=90.0&amp;FingerJoint_style=rectangular&amp;FingerJoint_surroundingspaces=2.0&amp;FingerJoint_bottom_lip=0.0&amp;FingerJoint_edge_width=1.0&amp;FingerJoint_extra_length=0.0&amp;FingerJoint_finger=2.0&amp;FingerJoint_play=0.0&amp;FingerJoint_space=2.0&amp;FingerJoint_width=1.0&amp;x=50&amp;y=50&amp;h=30&amp;outside=0&amp;thickness=3.18&amp;format=svg&amp;tabs=0.0&amp;qr_code=0&amp;debug=0&amp;labels=0&amp;reference=100&amp;inner_corners=loop&amp;burn=0.11&amp;language=en&amp;render=2
Url short: http://www.festi.info/boxes.py/BasedBox?x=50&amp;y=50&amp;h=30&amp;outside=0&amp;thickness=3.18&amp;labels=0&amp;burn=0.11
SettingsUrl: http://www.festi.info/boxes.py/BasedBox?FingerJoint_angle=90.0&amp;FingerJoint_style=rectangular&amp;FingerJoint_surroundingspaces=2.0&amp;FingerJoint_bottom_lip=0.0&amp;FingerJoint_edge_width=1.0&amp;FingerJoint_extra_length=0.0&amp;FingerJoint_finger=2.0&amp;FingerJoint_play=0.0&amp;FingerJoint_space=2.0&amp;FingerJoint_width=1.0&amp;x=50&amp;y=50&amp;h=30&amp;outside=0&amp;thickness=3.18&amp;format=svg&amp;tabs=0.0&amp;qr_code=0&amp;debug=0&amp;labels=0&amp;reference=100&amp;inner_corners=loop&amp;burn=0.11&amp;language=en&amp;render=2
SettingsUrl short: http://www.festi.info/boxes.py/BasedBox?x=50&amp;y=50&amp;h=30&amp;outside=0&amp;thickness=3.18&amp;labels=0&amp;burn=0.11
</dc:description>
</cc:Work></rdf:RDF></metadata>
<g id="p-0" style="fill:none;stroke-linecap:round;stroke-linejoin:round;">
  <path d="M 10.400 161.090 H 110.400 V 151.090 H 10.400 V 161.090 Z" stroke="rgb(0,0,0)" stroke-width="0.22" />
  <text transform="matrix( 1.000 0.000 0.000 1.000 60.400 152.090 )" style="font-family: sans-serif ; font-weight: normal; font-style: normal; fill: rgb(255,0,0)" font-size="8px" text-anchor="middle" dominant-baseline="hanging">100mm, burn:0.11mm</text>
</g>
<g id="p-1" style="fill:none;stroke-linecap:round;stroke-linejoin:round;">
  <path d="M 13.580 146.100 H 22.570 C 22.680 146.100 22.570 145.990 22.570 146.100 V 149.170 C 22.570 149.231 22.619 149.280 22.680 149.280 H 29.040 C 29.101 149.280 29.150 149.231 29.150 149.170 V 146.100 C 29.150 145.990 29.040 146.100 29.150 146.100 H 35.290 C 35.400 146.100 35.290 145.990 35.290 146.100 V 149.170 C 35.290 149.231 35.339 149.280 35.400 149.280 H 41.760 C 41.821 149.280 41.870 149.231 41.870 149.170 V 146.100 C 41.870 145.990 41.760 146.100 41.870 146.100 H 48.010 C 48.120 146.100 48.010 145.990 48.010 146.100 V 149.170 C 48.010 149.231 48.059 149.280 48.120 149.280 H 54.480 C 54.541 149.280 54.590 149.231 54.590 149.170 V 146.100 C 54.590 145.990 54.480 146.100 54.590 146.100 H 63.580 H 66.760 C 66.821 146.100 66.870 146.051 66.870 145.990 V 134.170 C 66.870 134.109 66.821 134.060 66.760 134.060 H 63.690 C 63.580 134.060 63.690 134.170 63.690 134.060 V 127.920 C 63.690 127.810 63.580 127.920 63.690 127.920 H 66.760 C 66.821 127.920 66.870 127.871 66.870 127.810 V 115.990 V 112.810 C 66.870 112.749 66.821 112.700 66.760 112.700 H 63.580 H 54.480 C 54.419 112.700 54.370 112.749 54.370 112.810 V 115.880 C 54.370 115.990 54.480 115.880 54.370 115.880 H 48.230 C 48.120 115.880 48.230 115.990 48.230 115.880 V 112.810 C 48.230 112.749 48.181 112.700 48.120 112.700 H 41.760 C 41.699 112.700 41.650 112.749 41.650 112.810 V 115.880 C 41.650 115.990 41.760 115.880 41.650 115.880 H 35.510 C 35.400 115.880 35.510 115.990 35.510 115.880 V 112.810 C 35.510 112.749 35.461 112.700 35.400 112.700 H 29.040 C 28.979 112.700 28.930 112.749 28.930 112.810 V 115.880 C 28.930 115.990 29.040 115.880 28.930 115.880 H 22.790 C 22.680 115.880 22.790 115.990 22.790 115.880 V 112.810 C 22.790 112.749 22.741 112.700 22.680 112.700 H 13.580 H 10.400 C 10.339 112.700 10.290 112.749 10.290 112.810 V 115.990 V 127.810 C 10.290 127.871 10.339 127.920 10.400 127.920 H 13.470 C 13.580 127.920 13.470 127.810 13.470 127.920 V 134.060 C 13.470 134.170 13.580 134.060 13.470 134.060 H 10.400 C 10.339 134.060 10.290 134.109 10.290 134.170 V 145.990 C 10.290 146.051 10.339 146.100 10.400 146.100 H 13.580 Z" stroke="rgb(0,0,0)" stroke-width="0.22" />
</g>
<g id="p-2" style="fill:none;stroke-linecap:round;stroke-linejoin:round;">
  <path d="M 71.750 146.100 H 80.740 C 80.850 146.100 80.740 145.990 80.740 146.100 V 149.170 C 80.740 149.231 80.789 149.280 80.850 149.280 H 87.210 C 87.271 149.280 87.320 149.231 87.320 149.170 V 146.100 C 87.320 145.990 87.210 146.100 87.320 146.100 H 93.460 C 93.570 146.100 93.460 145.990 93.460 146.100 V 149.170 C 93.460 149.231 93.509 149.280 93.570 149.280 H 99.930 C 99.991 149.280 100.040 149.231 100.040 149.170 V 146.100 C 100.040 145.990 99.930 146.100 100.040 146.100 H 106.180 C 106.290 146.100 106.180 145.990 106.180 146.100 V 149.170 C 106.180 149.231 106.229 149.280 106.290 149.280 H 112.650 C 112.711 149.280 112.760 149.231 112.760 149.170 V 146.100 C 112.760 145.990 112.650 146.100 112.760 146.100 H 121.750 C 121.811 146.100 121.860 146.051 121.860 145.990 V 134.280 C 121.860 134.170 121.750 134.280 121.860 134.280 H 124.930 C 124.991 134.280 125.040 134.231 125.040 134.170 V 127.810 C 125.040 127.749 124.991 127.700 124.930 127.700 H 121.860 C 121.750 127.700 121.860 127.810 121.860 127.700 V 115.990 V 112.810 C 121.860 112.749 121.811 112.700 121.750 112.700 H 112.650 C 112.589 112.700 112.540 112.749 112.540 112.810 V 115.880 C 112.540 115.990 112.650 115.880 112.540 115.880 H 106.400 C 106.290 115.880 106.400 115.990 106.400 115.880 V 112.810 C 106.400 112.749 106.351 112.700 106.290 112.700 H 99.930 C 99.869 112.700 99.820 112.749 99.820 112.810 V 115.880 C 99.820 115.990 99.930 115.880 99.820 115.880 H 93.680 C 93.570 115.880 93.680 115.990 93.680 115.880 V 112.810 C 93.680 112.749 93.631 112.700 93.570 112.700 H 87.210 C 87.149 112.700 87.100 112.749 87.100 112.810 V 115.880 C 87.100 115.990 87.210 115.880 87.100 115.880 H 80.960 C 80.850 115.880 80.960 115.990 80.960 115.880 V 112.810 C 80.960 112.749 80.911 112.700 80.850 112.700 H 71.750 C 71.689 112.700 71.640 112.749 71.640 112.810 V 115.990 V 127.700 C 71.640 127.810 71.750 127.700 71.640 127.700 H 68.570 C 68.509 127.700 68.460 127.749 68.460 127.810 V 134.170 C 68.460 134.231 68.509 134.280 68.570 134.280 H 71.640 C 71.750 134.280 71.640 134.170 71.640 134.280 V 145.990 C 71.640 146.051 71.689 146.100 71.750 146.100 Z" stroke="rgb(0,0,0)" stroke-width="0.22" />
</g>
<g id="p-3" style="fill:none;stroke-linecap:round;stroke-linejoin:round;">
  <path d="M 71.750 107.930 H 80.740 C 80.850 107.930 80.740 107.820 80.740 107.930 V 111.000 C 80.740 111.061 80.789 111.110 80.850 111.110 H 87.210 C 87.271 111.110 87.320 111.061 87.320 111.000 V 107.930 C 87.320 107.820 87.210 107.930 87.320 107.930 H 93.460 C 93.570 107.930 93.460 107.820 93.460 107.930 V 111.000 C 93.460 111.061 93.509 111.110 93.570 111.110 H 99.930 C 99.991 111.110 100.040 111.061 100.040 111.000 V 107.930 C 100.040 107.820 99.930 107.930 100.040 107.930 H 106.180 C 106.290 107.930 106.180 107.820 106.180 107.930 V 111.000 C 106.180 111.061 106.229 111.110 106.290 111.110 H 112.650 C 112.711 111.110 112.760 111.061 112.760 111.000 V 107.930 C 112.760 107.820 112.650 107.930 112.760 107.930 H 121.750 C 121.811 107.930 121.860 107.881 121.860 107.820 V 96.110 C 121.860 96.000 121.750 96.110 121.860 96.110 H 124.930 C 124.991 96.110 125.040 96.061 125.040 96.000 V 89.640 C 125.040 89.579 124.991 89.530 124.930 89.530 H 121.860 C 121.750 89.530 121.860 89.640 121.860 89.530 V 77.820 V 74.640 C 121.860 74.579 121.811 74.530 121.750 74.530 H 112.650 C 112.589 74.530 112.540 74.579 112.540 74.640 V 77.710 C 112.540 77.820 112.650 77.710 112.540 77.710 H 106.400 C 106.290 77.710 106.400 77.820 106.400 77.710 V 74.640 C 106.400 74.579 106.351 74.530 106.290 74.530 H 99.930 C 99.869 74.530 99.820 74.579 99.820 74.640 V 77.710 C 99.820 77.820 99.930 77.710 99.820 77.710 H 93.680 C 93.570 77.710 93.680 77.820 93.680 77.710 V 74.640 C 93.680 74.579 93.631 74.530 93.570 74.530 H 87.210 C 87.149 74.530 87.100 74.579 87.100 74.640 V 77.710 C 87.100 77.820 87.210 77.710 87.100 77.710 H 80.960 C 80.850 77.710 80.960 77.820 80.960 77.710 V 74.640 C 80.960 74.579 80.911 74.530 80.850 74.530 H 71.750 C 71.689 74.530 71.640 74.579 71.640 74.640 V 77.820 V 89.530 C 71.640 89.640 71.750 89.530 71.640 89.530 H 68.570 C 68.509 89.530 68.460 89.579 68.460 89.640 V 96.000 C 68.460 96.061 68.509 96.110 68.570 96.110 H 71.640 C 71.750 96.110 71.640 96.000 71.640 96.110 V 107.820 C 71.640 107.881 71.689 107.930 71.750 107.930 Z" stroke="rgb(0,0,0)" stroke-width="0.22" />
</g>
<g id="p-4" style="fill:none;stroke-linecap:round;stroke-linejoin:round;">
  <path d="M 13.580 107.930 H 22.570 C 22.680 107.930 22.570 107.820 22.570 107.930 V 111.000 C 22.570 111.061 22.619 111.110 22.680 111.110 H 29.040 C 29.101 111.110 29.150 111.061 29.150 111.000 V 107.930 C 29.150 107.820 29.040 107.930 29.150 107.930 H 35.290 C 35.400 107.930 35.290 107.820 35.290 107.930 V 111.000 C 35.290 111.061 35.339 111.110 35.400 111.110 H 41.760 C 41.821 111.110 41.870 111.061 41.870 111.000 V 107.930 C 41.870 107.820 41.760 107.930 41.870 107.930 H 48.010 C 48.120 107.930 48.010 107.820 48.010 107.930 V 111.000 C 48.010 111.061 48.059 111.110 48.120 111.110 H 54.480 C 54.541 111.110 54.590 111.061 54.590 111.000 V 107.930 C 54.590 107.820 54.480 107.930 54.590 107.930 H 63.580 H 66.760 C 66.821 107.930 66.870 107.881 66.870 107.820 V 96.000 C 66.870 95.939 66.821 95.890 66.760 95.890 H 63.690 C 63.580 95.890 63.690 96.000 63.690 95.890 V 89.750 C 63.690 89.640 63.580 89.750 63.690 89.750 H 66.760 C 66.821 89.750 66.870 89.701 66.870 89.640 V 77.820 V 74.640 C 66.870 74.579 66.821 74.530 66.760 74.530 H 63.580 H 54.480 C 54.419 74.530 54.370 74.579 54.370 74.640 V 77.710 C 54.370 77.820 54.480 77.710 54.370 77.710 H 48.230 C 48.120 77.710 48.230 77.820 48.230 77.710 V 74.640 C 48.230 74.579 48.181 74.530 48.120 74.530 H 41.760 C 41.699 74.530 41.650 74.579 41.650 74.640 V 77.710 C 41.650 77.820 41.760 77.710 41.650 77.710 H 35.510 C 35.400 77.710 35.510 77.820 35.510 77.710 V 74.640 C 35.510 74.579 35.461 74.530 35.400 74.530 H 29.040 C 28.979 74.530 28.930 74.579 28.930 74.640 V 77.710 C 28.930 77.820 29.040 77.710 28.930 77.710 H 22.790 C 22.680 77.710 22.790 77.820 22.790 77.710 V 74.640 C 22.790 74.579 22.741 74.530 22.680 74.530 H 13.580 H 10.400 C 10.339 74.530 10.290 74.579 10.290 74.640 V 77.820 V 89.640 C 10.290 89.701 10.339 89.750 10.400 89.750 H 13.470 C 13.580 89.750 13.470 89.640 13.470 89.750 V 95.890 C 13.470 96.000 13.580 95.890 13.470 95.890 H 10.400 C 10.339 95.890 10.290 95.939 10.290 96.000 V 107.820 C 10.290 107.881 10.339 107.930 10.400 107.930 H 13.580 Z" stroke="rgb(0,0,0)" stroke-width="0.22" />
</g>
<g id="p-5" style="fill:none;stroke-linecap:round;stroke-linejoin:round;">
  <path d="M 13.580 69.760 H 22.570 C 22.680 69.760 22.570 69.650 22.570 69.760 V 72.830 C 22.570 72.891 22.619 72.940 22.680 72.940 H 29.040 C 29.101 72.940 29.150 72.891 29.150 72.830 V 69.760 C 29.150 69.650 29.040 69.760 29.150 69.760 H 35.290 C 35.400 69.760 35.290 69.650 35.290 69.760 V 72.830 C 35.290 72.891 35.339 72.940 35.400 72.940 H 41.760 C 41.821 72.940 41.870 72.891 41.870 72.830 V 69.760 C 41.870 69.650 41.760 69.760 41.870 69.760 H 48.010 C 48.120 69.760 48.010 69.650 48.010 69.760 V 72.830 C 48.010 72.891 48.059 72.940 48.120 72.940 H 54.480 C 54.541 72.940 54.590 72.891 54.590 72.830 V 69.760 C 54.590 69.650 54.480 69.760 54.590 69.760 H 63.580 C 63.641 69.760 63.690 69.711 63.690 69.650 V 60.660 C 63.690 60.550 63.580 60.660 63.690 60.660 H 66.760 C 66.821 60.660 66.870 60.611 66.870 60.550 V 54.190 C 66.870 54.129 66.821 54.080 66.760 54.080 H 63.690 C 63.580 54.080 63.690 54.190 63.690 54.080 V 47.940 C 63.690 47.830 63.580 47.940 63.690 47.940 H 66.760 C 66.821 47.940 66.870 47.891 66.870 47.830 V 41.470 C 66.870 41.409 66.821 41.360 66.760 41.360 H 63.690 C 63.580 41.360 63.690 41.470 63.690 41.360 V 35.220 C 63.690 35.110 63.580 35.220 63.690 35.220 H 66.760 C 66.821 35.220 66.870 35.171 66.870 35.110 V 28.750 C 66.870 28.689 66.821 28.640 66.760 28.640 H 63.690 C 63.580 28.640 63.690 28.750 63.690 28.640 V 19.650 C 63.690 19.589 63.641 19.540 63.580 19.540 H 54.590 C 54.480 19.540 54.590 19.650 54.590 19.540 V 16.470 C 54.590 16.409 54.541 16.360 54.480 16.360 H 48.120 C 48.059 16.360 48.010 16.409 48.010 16.470 V 19.540 C 48.010 19.650 48.120 19.540 48.010 19.540 H 41.870 C 41.760 19.540 41.870 19.650 41.870 19.540 V 16.470 C 41.870 16.409 41.821 16.360 41.760 16.360 H 35.400 C 35.339 16.360 35.290 16.409 35.290 16.470 V 19.540 C 35.290 19.650 35.400 19.540 35.290 19.540 H 29.150 C 29.040 19.540 29.150 19.650 29.150 19.540 V 16.470 C 29.150 16.409 29.101 16.360 29.040 16.360 H 22.680 C 22.619 16.360 22.570 16.409 22.570 16.470 V 19.540 C 22.570 19.650 22.680 19.540 22.570 19.540 H 13.580 C 13.519 19.540 13.470 19.589 13.470 19.650 V 28.640 C 13.470 28.750 13.580 28.640 13.470 28.640 H 10.400 C 10.339 28.640 10.290 28.689 10.290 28.750 V 35.110 C 10.290 35.171 10.339 35.220 10.400 35.220 H 13.470 C 13.580 35.220 13.470 35.110 13.470 35.220 V 41.360 C 13.470 41.470 13.580 41.360 13.470 41.360 H 10.400 C 10.339 41.360 10.290 41.409 10.290 41.470 V 47.830 C 10.290 47.891 10.339 47.940 10.400 47.940 H 13.470 C 13.580 47.940 13.470 47.830 13.470 47.940 V 54.080 C 13.470 54.190 13.580 54.080 13.470 54.080 H 10.400 C 10.339 54.080 10.290 54.129 10.290 54.190 V 60.550 C 10.290 60.611 10.339 60.660 10.400 60.660 H 13.470 C 13.580 60.660 13.470 60.550 13.470 60.660 V 69.650 C 13.470 69.711 13.519 69.760 13.580 69.760 Z" stroke="rgb(0,0,0)" stroke-width="0.22" />
</g>
<g id="p-6" style="fill:none;stroke-linecap:round;stroke-linejoin:round;">
  <path d="M 87.210 69.540 H 84.140 C 84.030 69.540 84.140 69.650 84.140 69.540 V 66.580 C 84.140 66.470 84.030 66.580 84.140 66.580 H 90.280 C 90.390 66.580 90.280 66.470 90.280 66.580 V 69.540 C 90.280 69.650 90.390 69.540 90.280 69.540 H 87.210 Z" stroke="rgb(0,0,255)" stroke-width="0.22" />
  <path d="M 99.930 69.540 H 96.860 C 96.750 69.540 96.860 69.650 96.860 69.540 V 66.580 C 96.860 66.470 96.750 66.580 96.860 66.580 H 103.000 C 103.110 66.580 103.000 66.470 103.000 66.580 V 69.540 C 103.000 69.650 103.110 69.540 103.000 69.540 H 99.930 Z" stroke="rgb(0,0,255)" stroke-width="0.22" />
  <path d="M 112.650 69.540 H 109.580 C 109.470 69.540 109.580 69.650 109.580 69.540 V 66.580 C 109.580 66.470 109.470 66.580 109.580 66.580 H 115.720 C 115.830 66.580 115.720 66.470 115.720 66.580 V 69.540 C 115.720 69.650 115.830 69.540 115.720 69.540 H 112.650 Z" stroke="rgb(0,0,255)" stroke-width="0.22" />
  <path d="M 74.930 72.940 H 124.930 H 131.290 C 131.351 72.940 131.400 72.891 131.400 72.830 V 66.470 V 16.470 V 10.110 C 131.400 10.049 131.351 10.000 131.290 10.000 H 124.930 H 74.930 H 68.570 C 68.509 10.000 68.460 10.049 68.460 10.110 V 16.470 V 66.470 V 72.830 C 68.460 72.891 68.509 72.940 68.570 72.940 H 74.930 Z" stroke="rgb(0,0,0)" stroke-width="0.22" />
  <path d="M 128.000 54.190 V 57.260 C 128.000 57.370 128.110 57.260 128.000 57.260 H 125.040 C 124.930 57.260 125.040 57.370 125.040 57.260 V 51.120 C 125.040 51.010 124.930 51.120 125.040 51.120 H 128.000 C 128.110 51.120 128.000 51.010 128.000 51.120 V 54.190 Z" stroke="rgb(0,0,255)" stroke-width="0.22" />
  <path d="M 128.000 41.470 V 44.540 C 128.000 44.650 128.110 44.540 128.000 44.540 H 125.040 C 124.930 44.540 125.040 44.650 125.040 44.540 V 38.400 C 125.040 38.290 124.930 38.400 125.040 38.400 H 128.000 C 128.110 38.400 128.000 38.290 128.000 38.400 V 41.470 Z" stroke="rgb(0,0,255)" stroke-width="0.22" />
  <path d="M 128.000 28.750 V 31.820 C 128.000 31.930 128.110 31.820 128.000 31.820 H 125.040 C 124.930 31.820 125.040 31.930 125.040 31.820 V 25.680 C 125.040 25.570 124.930 25.680 125.040 25.680 H 128.000 C 128.110 25.680 128.000 25.570 128.000 25.680 V 28.750 Z" stroke="rgb(0,0,255)" stroke-width="0.22" />
  <path d="M 112.650 13.400 H 115.720 C 115.830 13.400 115.720 13.290 115.720 13.400 V 16.360 C 115.720 16.470 115.830 16.360 115.720 16.360 H 109.580 C 109.470 16.360 109.580 16.470 109.580 16.360 V 13.400 C 109.580 13.290 109.470 13.400 109.580 13.400 H 112.650 Z" stroke="rgb(0,0,255)" stroke-width="0.22" />
  <path d="M 99.930 13.400 H 103.000 C 103.110 13.400 103.000 13.290 103.000 13.400 V 16.360 C 103.000 16.470 103.110 16.360 103.000 16.360 H 96.860 C 96.750 16.360 96.860 16.470 96.860 16.360 V 13.400 C 96.860 13.290 96.750 13.400 96.860 13.400 H 99.930 Z" stroke="rgb(0,0,255)" stroke-width="0.22" />
  <path d="M 87.210 13.400 H 90.280 C 90.390 13.400 90.280 13.290 90.280 13.400 V 16.360 C 90.280 16.470 90.390 16.360 90.280 16.360 H 84.140 C 84.030 16.360 84.140 16.470 84.140 16.360 V 13.400 C 84.140 13.290 84.030 13.400 84.140 13.400 H 87.210 Z" stroke="rgb(0,0,255)" stroke-width="0.22" />
  <path d="M 71.860 28.750 V 25.680 C 71.860 25.570 71.750 25.680 71.860 25.680 H 74.820 C 74.930 25.680 74.820 25.570 74.820 25.680 V 31.820 C 74.820 31.930 74.930 31.820 74.820 31.820 H 71.860 C 71.750 31.820 71.860 31.930 71.860 31.820 V 28.750 Z" stroke="rgb(0,0,255)" stroke-width="0.22" />
  <path d="M 71.860 41.470 V 38.400 C 71.860 38.290 71.750 38.400 71.860 38.400 H 74.820 C 74.930 38.400 74.820 38.290 74.820 38.400 V 44.540 C 74.820 44.650 74.930 44.540 74.820 44.540 H 71.860 C 71.750 44.540 71.860 44.650 71.860 44.540 V 41.470 Z" stroke="rgb(0,0,255)" stroke-width="0.22" />
  <path d="M 71.860 54.190 V 51.120 C 71.860 51.010 71.750 51.120 71.860 51.120 H 74.820 C 74.930 51.120 74.820 51.010 74.820 51.120 V 57.260 C 74.820 57.370 74.930 57.260 74.820 57.260 H 71.860 C 71.750 57.260 71.860 57.370 71.860 57.260 V 54.190 Z" stroke="rgb(0,0,255)" stroke-width="0.22" />
</g>
</svg>