<?xml version='1.0' encoding='utf-8'?>
<svg width="141.37mm" height="171.01mm" viewBox="0.0 0.0 141.37 171.01" xmlns="http://www.w3.org/2000/svg" xmlns:dc="http://purl.org/dc/elements/1.1/" xmlns:cc="http://creativecommons.org/ns#" xmlns:rdf="http://www.w3.org/1999/02/22-rdf-syntax-ns#" xmlns:svg="http://www.w3.org/2000/svg" xmlns:xlink="http://www.w3.org/1999/xlink" xmlns:inkscape="http://www.inkscape.org/namespaces/inkscape">
<!--
BasedBox - Fully closed box on a base


This box is more of a building block than a finished item.
Use a vector graphics program (like Inkscape) to add holes or adjust the base
plate. The width of the "brim" can also be adjusted with the **edge_width**
 parameter in the **Finger Joints Settings**.
 
See ClosedBox for variant without a base.



Created with Boxes.py (https://festi.info/boxes.py)
Creation date: 2023-03-15 19:33:47
Command line (remove spaces between dashes): boxes BasedBox - -x=50 - -y=50 - -h=30 - -outside=0 - -thickness=3.18 - -labels=0
Url: http://www.festi.info/boxes.py/BasedBox?FingerJoint_angle=90.0&FingerJoint_style=rectangular&FingerJoint_surroundingspaces=2.0&FingerJoint_bottom_lip=0.0&FingerJoint_edge_width=1.0&FingerJoint_extra_length=0.0&FingerJoint_finger=2.0&FingerJoint_play=0.0&FingerJoint_space=2.0&FingerJoint_width=1.0&x=50&y=50&h=30&outside=0&thickness=3.18&format=svg&tabs=0.0&qr_code=0&debug=0&labels=0&reference=100&inner_corners=loop&burn=0.1&language=en&render=2
Url short: http://www.festi.info/boxes.py/BasedBox?x=50&y=50&h=30&outside=0&thickness=3.18&labels=0
SettingsUrl: http://www.festi.info/boxes.py/BasedBox?FingerJoint_angle=90.0&FingerJoint_style=rectangular&FingerJoint_surroundingspaces=2.0&FingerJoint_bottom_lip=0.0&FingerJoint_edge_width=1.0&FingerJoint_extra_length=0.0&FingerJoint_finger=2.0&FingerJoint_play=0.0&FingerJoint_space=2.0&FingerJoint_width=1.0&x=50&y=50&h=30&outside=0&thickness=3.18&format=svg&tabs=0.0&qr_code=0&debug=0&labels=0&reference=100&inner_corners=loop&burn=0.1&language=en&render=2
SettingsUrl short: http://www.festi.info/boxes.py/BasedBox?x=50&y=50&h=30&outside=0&thickness=3.18&labels=0
-->
<title>BasedBox</title>
<metadata>
<rdf:RDF><cc:Work>
<dc:title>Box - BasedBox</dc:title>
<dc:date>2023-03-15 19:33:47</dc:date>
<dc:source>http://www.festi.info/boxes.py/BasedBox?FingerJoint_angle=90.0&amp;FingerJoint_style=rectangular&amp;FingerJoint_surroundingspaces=2.0&amp;FingerJoint_bottom_lip=0.0&amp;FingerJoint_edge_width=1.0&amp;FingerJoint_extra_length=0.0&amp;FingerJoint_finger=2.0&amp;FingerJoint_play=0.0&amp;FingerJoint_space=2.0&amp;FingerJoint_width=1.0&amp;x=50&amp;y=50&amp;h=30&amp;outside=0&amp;thickness=3.18&amp;format=svg&amp;tabs=0.0&amp;qr_code=0&amp;debug=0&amp;labels=0&amp;reference=100&amp;inner_corners=loop&amp;burn=0.1&amp;language=en&amp;render=2</dc:source>
<dc:source>http://www.festi.info/boxes.py/BasedBox?x=50&amp;y=50&amp;h=30&amp;outside=0&amp;thickness=3.18&amp;labels=0</dc:source>
<dc:description>Fully closed box on a base

This box is more of a building block than a finished item.
Use a vector graphics program (like Inkscape) to add holes or adjust the base
plate. The width of the "brim" can also be adjusted with the **edge_width**
 parameter in the **Finger Joints Settings**.
 
See ClosedBox for variant without a base.


Created with Boxes.py (https://festi.info/boxes.py)
Command line: boxes BasedBox --FingerJoint_angle=90.0 --FingerJoint_style=rectangular --FingerJoint_surroundingspaces=2.0 --FingerJoint_bottom_lip=0.0 --FingerJoint_edge_width=1.0 --FingerJoint_extra_length=0.0 --FingerJoint_finger=2.0 --FingerJoint_play=0.0 --FingerJoint_space=2.0 --FingerJoint_width=1.0 --x=50 --y=50 --h=30 --outside=0 --thickness=3.18 --format=svg --tabs=0.0 --qr_code=0 --debug=0 --labels=0 --reference=100 --inner_corners=loop --burn=0.1
Command line short: boxes BasedBox --x=50 --y=50 --h=30 --outside=0 --thickness=3.18 --labels=0
Url: http://www.festi.info/boxes.py/BasedBox?FingerJoint_angle=90.0&amp;FingerJoint_style=rectangular&amp;FingerJoint_surroundingspaces=2.0&amp;FingerJoint_bottom_lip=0.0&amp;FingerJoint_edge_width=1.0&amp;FingerJoint_extra_length=0.0&amp;FingerJoint_finger=2.0&amp;FingerJoint_play=0.0&amp;FingerJoint_space=2.0&amp;FingerJoint_width=1.0&amp;x=50&amp;y=50&amp;h=30&amp;outside=0&amp;thickness=3.18&amp;format=svg&amp;tabs=0.0&amp;qr_code=0&amp;debug=0&amp;labels=0&amp;reference=100&amp;inner_corners=loop&amp;burn=0.1&amp;language=en&amp;render=2
Url short: http://www.festi.info/boxes.py/BasedBox?x=50&amp;y=50&amp;h=30&amp;outside=0&amp;thickness=3.18&amp;labels=0
SettingsUrl: http://www.festi.info/boxes.py/BasedBox?FingerJoint_angle=90.0&amp;FingerJoint_style=rectangular&amp;FingerJoint_surroundingspaces=2.0&amp;FingerJoint_bottom_lip=0.0&amp;FingerJoint_edge_width=1.0&amp;FingerJoint_extra_length=0.0&amp;FingerJoint_finger=2.0&amp;FingerJoint_play=0.0&amp;FingerJoint_space=2.0&amp;FingerJoint_width=1.0&amp;x=50&amp;y=50&amp;h=30&amp;outside=0&amp;thickness=3.18&amp;format=svg&amp;tabs=0.0&amp;qr_code=0&amp;debug=0&amp;labels=0&amp;reference=100&amp;inner_corners=loop&amp;burn=0.1&amp;language=en&amp;render=2
SettingsUrl short: http://www.festi.info/boxes.py/BasedBox?x=50&amp;y=50&amp;h=30&amp;outside=0&amp;thickness=3.18&amp;labels=0
</dc:description>
</cc:Work></rdf:RDF></metadata>
<g id="p-0" style="fill:none;stroke-linecap:round;stroke-linejoin:round;">
  <path d="M 10.400 161.010 H 110.400 V 151.010 H 10.400 V 161.010 Z" stroke="rgb(0,0,0)" stroke-width="0.20" />
  <text transform="matrix( 1.000 0.000 0.000 1.000 60.400 152.010 )" style="font-family: sans-serif ; font-weight: normal; font-style: normal; fill: rgb(255,0,0)" font-size="8px" text-anchor="middle" dominant-baseline="hanging">100mm, burn:0.10mm</text>
</g>
<g id="p-1" style="fill:none;stroke-linecap:round;stroke-linejoin:round;">
  <path d="M 13.580 146.040 H 22.580 C 22.680 146.040 22.580 145.940 22.580 146.040 V 149.120 C 22.580 149.175 22.625 149.220 22.680 149.220 H 29.040 C 29.095 149.220 29.140 149.175 29.140 149.120 V 146.040 C 29.140 145.940 29.040 146.040 29.140 146.040 H 35.300 C 35.400 146.040 35.300 145.940 35.300 146.040 V 149.120 C 35.300 149.175 35.345 149.220 35.400 149.220 H 41.760 C 41.815 149.220 41.860 149.175 41.860 149.120 V 146.040 C 41.860 145.940 41.760 146.040 41.860 146.040 H 48.020 C 48.120 146.040 48.020 145.940 48.020 146.040 V 149.120 C 48.020 149.175 48.065 149.220 48.120 149.220 H 54.480 C 54.535 149.220 54.580 149.175 54.580 149.120 V 146.040 C 54.580 145.940 54.480 146.040 54.580 146.040 H 63.580 H 66.760 C 66.815 146.040 66.860 145.995 66.860 145.940 V 134.120 C 66.860 134.065 66.815 134.020 66.760 134.020 H 63.680 C 63.580 134.020 63.680 134.120 63.680 134.020 V 127.860 C 63.680 127.760 63.580 127.860 63.680 127.860 H 66.760 C 66.815 127.860 66.860 127.815 66.860 127.760 V 115.940 V 112.760 C 66.860 112.705 66.815 112.660 66.760 112.660 H 63.580 H 54.480 C 54.425 112.660 54.380 112.705 54.380 112.760 V 115.840 C 54.380 115.940 54.480 115.840 54.380 115.840 H 48.220 C 48.120 115.840 48.220 115.940 48.220 115.840 V 112.760 C 48.220 112.705 48.175 112.660 48.120 112.660 H 41.760 C 41.705 112.660 41.660 112.705 41.660 112.760 V 115.840 C 41.660 115.940 41.760 115.840 41.660 115.840 H 35.500 C 35.400 115.840 35.500 115.940 35.500 115.840 V 112.760 C 35.500 112.705 35.455 112.660 35.400 112.660 H 29.040 C 28.985 112.660 28.940 112.705 28.940 112.760 V 115.840 C 28.940 115.940 29.040 115.840 28.940 115.840 H 22.780 C 22.680 115.840 22.780 115.940 22.780 115.840 V 112.760 C 22.780 112.705 22.735 112.660 22.680 112.660 H 13.580 H 10.400 C 10.345 112.660 10.300 112.705 10.300 112.760 V 115.940 V 127.760 C 10.300 127.815 10.345 127.860 10.400 127.860 H 13.480 C 13.580 127.860 13.480 127.760 13.480 127.860 V 134.020 C 13.480 134.120 13.580 134.020 13.480 134.020 H 10.400 C 10.345 134.020 10.300 134.065 10.300 134.120 V 145.940 C 10.300 145.995 10.345 146.040 10.400 146.040 H 13.580 Z" stroke="rgb(0,0,0)" stroke-width="0.20" />
</g>
<g id="p-2" style="fill:none;stroke-linecap:round;stroke-linejoin:round;">
  <path d="M 71.730 146.040 H 80.730 C 80.830 146.040 80.730 145.940 80.730 146.040 V 149.120 C 80.730 149.175 80.775 149.220 80.830 149.220 H 87.190 C 87.245 149.220 87.290 149.175 87.290 149.120 V 146.040 C 87.290 145.940 87.190 146.040 87.290 146.040 H 93.450 C 93.550 146.040 93.450 145.940 93.450 146.040 V 149.120 C 93.450 149.175 93.495 149.220 93.550 149.220 H 99.910 C 99.965 149.220 100.010 149.175 100.010 149.120 V 146.040 C 100.010 145.940 99.910 146.040 100.010 146.040 H 106.170 C 106.270 146.040 106.170 145.940 106.170 146.040 V 149.120 C 106.170 149.175 106.215 149.220 106.270 149.220 H 112.630 C 112.685 149.220 112.730 149.175 112.730 149.120 V 146.040 C 112.730 145.940 112.630 146.040 112.730 146.040 H 121.730 C 121.785 146.040 121.830 145.995 121.830 145.940 V 134.220 C 121.830 134.120 121.730 134.220 121.830 134.220 H 124.910 C 124.965 134.220 125.010 134.175 125.010 134.120 V 127.760 C 125.010 127.705 124.965 127.660 124.910 127.660 H 121.830 C 121.730 127.660 121.830 127.760 121.830 127.660 V 115.940 V 112.760 C 121.830 112.705 121.785 112.660 121.730 112.660 H 112.630 C 112.575 112.660 112.530 112.705 112.530 112.760 V 115.840 C 112.530 115.940 112.630 115.840 112.530 115.840 H 106.370 C 106.270 115.840 106.370 115.940 106.370 115.840 V 112.760 C 106.370 112.705 106.325 112.660 106.270 112.660 H 99.910 C 99.855 112.660 99.810 112.705 99.810 112.760 V 115.840 C 99.810 115.940 99.910 115.840 99.810 115.840 H 93.650 C 93.550 115.840 93.650 115.940 93.650 115.840 V 112.760 C 93.650 112.705 93.605 112.660 93.550 112.660 H 87.190 C 87.135 112.660 87.090 112.705 87.090 112.760 V 115.840 C 87.090 115.940 87.190 115.840 87.090 115.840 H 80.930 C 80.830 115.840 80.930 115.940 80.930 115.840 V 112.760 C 80.930 112.705 80.885 112.660 80.830 112.660 H 71.730 C 71.675 112.660 71.630 112.705 71.630 112.760 V 115.940 V 127.660 C 71.630 127.760 71.730 127.660 71.630 127.660 H 68.550 C 68.495 127.660 68.450 127.705 68.450 127.760 V 134.120 C 68.450 134.175 68.495 134.220 68.550 134.220 H 71.630 C 71.730 134.220 71.630 134.120 71.630 134.220 V 145.940 C 71.630 145.995 71.675 146.040 71.730 146.040 Z" stroke="rgb(0,0,0)" stroke-width="0.20" />
</g>
<g id="p-3" style="fill:none;stroke-linecap:round;stroke-linejoin:round;">
  <path d="M 71.730 107.890 H 80.730 C 80.830 107.890 80.730 107.790 80.730 107.890 V 110.970 C 80.730 111.025 80.775 111.070 80.830 111.070 H 87.190 C 87.245 111.070 87.290 111.025 87.290 110.970 V 107.890 C 87.290 107.790 87.190 107.890 87.290 107.890 H 93.450 C 93.550 107.890 93.450 107.790 93.450 107.890 V 110.970 C 93.450 111.025 93.495 111.070 93.550 111.070 H 99.910 C 99.965 111.070 100.010 111.025 100.010 110.970 V 107.890 C 100.010 107.790 99.910 107.890 100.010 107.890 H 106.170 C 106.270 107.890 106.170 107.790 106.170 107.890 V 110.970 C 106.170 111.025 106.215 111.070 106.270 111.070 H 112.630 C 112.685 111.070 112.730 111.025 112.730 110.970 V 107.890 C 112.730 107.790 112.630 107.890 112.730 107.890 H 121.730 C 121.785 107.890 121.830 107.845 121.830 107.790 V 96.070 C 121.830 95.970 121.730 96.070 121.830 96.070 H 124.910 C 124.965 96.070 125.010 96.025 125.010 95.970 V 89.610 C 125.010 89.555 124.965 89.510 124.910 89.510 H 121.830 C 121.730 89.510 121.830 89.610 121.830 89.510 V 77.790 V 74.610 C 121.830 74.555 121.785 74.510 121.730 74.510 H 112.630 C 112.575 74.510 112.530 74.555 112.530 74.610 V 77.690 C 112.530 77.790 112.630 77.690 112.530 77.690 H 106.370 C 106.270 77.690 106.370 77.790 106.370 77.690 V 74.610 C 106.370 74.555 106.325 74.510 106.270 74.510 H 99.910 C 99.855 74.510 99.810 74.555 99.810 74.610 V 77.690 C 99.810 77.790 99.910 77.690 99.810 77.690 H 93.650 C 93.550 77.690 93.650 77.790 93.650 77.690 V 74.610 C 93.650 74.555 93.605 74.510 93.550 74.510 H 87.190 C 87.135 74.510 87.090 74.555 87.090 74.610 V 77.690 C 87.090 77.790 87.190 77.690 87.090 77.690 H 80.930 C 80.830 77.690 80.930 77.790 80.930 77.690 V 74.610 C 80.930 74.555 80.885 74.510 80.830 74.510 H 71.730 C 71.675 74.510 71.630 74.555 71.630 74.610 V 77.790 V 89.510 C 71.630 89.610 71.730 89.510 71.630 89.510 H 68.550 C 68.495 89.510 68.450 89.555 68.450 89.610 V 95.970 C 68.450 96.025 68.495 96.070 68.550 96.070 H 71.630 C 71.730 96.070 71.630 95.970 71.630 96.070 V 107.790 C 71.630 107.845 71.675 107.890 71.730 107.890 Z" stroke="rgb(0,0,0)" stroke-width="0.20" />
</g>
<g id="p-4" style="fill:none;stroke-linecap:round;stroke-linejoin:round;">
  <path d="M 13.580 107.890 H 22.580 C 22.680 107.890 22.580 107.790 22.580 107.890 V 110.970 C 22.580 111.025 22.625 111.070 22.680 111.070 H 29.040 C 29.095 111.070 29.140 111.025 29.140 110.970 V 107.890 C 29.140 107.790 29.040 107.890 29.140 107.890 H 35.300 C 35.400 107.890 35.300 107.790 35.300 107.890 V 110.970 C 35.300 111.025 35.345 111.070 35.400 111.070 H 41.760 C 41.815 111.070 41.860 111.025 41.860 110.970 V 107.890 C 41.860 107.790 41.760 107.890 41.860 107.890 H 48.020 C 48.120 107.890 48.020 107.790 48.020 107.890 V 110.970 C 48.020 111.025 48.065 111.070 48.120 111.070 H 54.480 C 54.535 111.070 54.580 111.025 54.580 110.970 V 107.890 C 54.580 107.790 54.480 107.890 54.580 107.890 H 63.580 H 66.760 C 66.815 107.890 66.860 107.845 66.860 107.790 V 95.970 C 66.860 95.915 66.815 95.870 66.760 95.870 H 63.680 C 63.580 95.870 63.680 95.970 63.680 95.870 V 89.710 C 63.680 89.610 63.580 89.710 63.680 89.710 H 66.760 C 66.815 89.710 66.860 89.665 66.860 89.610 V 77.790 V 74.610 C 66.860 74.555 66.815 74.510 66.760 74.510 H 63.580 H 54.480 C 54.425 74.510 54.380 74.555 54.380 74.610 V 77.690 C 54.380 77.790 54.480 77.690 54.380 77.690 H 48.220 C 48.120 77.690 48.220 77.790 48.220 77.690 V 74.610 C 48.220 74.555 48.175 74.510 48.120 74.510 H 41.760 C 41.705 74.510 41.660 74.555 41.660 74.610 V 77.690 C 41.660 77.790 41.760 77.690 41.660 77.690 H 35.500 C 35.400 77.690 35.500 77.790 35.500 77.690 V 74.610 C 35.500 74.555 35.455 74.510 35.400 74.510 H 29.040 C 28.985 74.510 28.940 74.555 28.940 74.610 V 77.690 C 28.940 77.790 29.040 77.690 28.940 77.690 H 22.780 C 22.680 77.690 22.780 77.790 22.780 77.690 V 74.610 C 22.780 74.555 22.735 74.510 22.680 74.510 H 13.580 H 10.400 C 10.345 74.510 10.300 74.555 10.300 74.610 V 77.790 V 89.610 C 10.300 89.665 10.345 89.710 10.400 89.710 H 13.480 C 13.580 89.710 13.480 89.610 13.480 89.710 V 95.870 C 13.480 95.970 13.580 95.870 13.480 95.870 H 10.400 C 10.345 95.870 10.300 95.915 10.300 95.970 V 107.790 C 10.300 107.845 10.345 107.890 10.400 107.890 H 13.580 Z" stroke="rgb(0,0,0)" stroke-width="0.20" />
</g>
<g id="p-5" style="fill:none;stroke-linecap:round;stroke-linejoin:round;">
  <path d="M 13.580 69.740 H 22.580 C 22.680 69.740 22.580 69.640 22.580 69.740 V 72.820 C 22.580 72.875 22.625 72.920 22.680 72.920 H 29.040 C 29.095 72.920 29.140 72.875 29.140 72.820 V 69.740 C 29.140 69.640 29.040 69.740 29.140 69.740 H 35.300 C 35.400 69.740 35.300 69.640 35.300 69.740 V 72.820 C 35.300 72.875 35.345 72.920 35.400 72.920 H 41.760 C 41.815 72.920 41.860 72.875 41.860 72.820 V 69.740 C 41.860 69.640 41.760 69.740 41.860 69.740 H 48.020 C 48.120 69.740 48.020 69.640 48.020 69.740 V 72.820 C 48.020 72.875 48.065 72.920 48.120 72.920 H 54.480 C 54.535 72.920 54.580 72.875 54.580 72.820 V 69.740 C 54.580 69.640 54.480 69.740 54.580 69.740 H 63.580 C 63.635 69.740 63.680 69.695 63.680 69.640 V 60.640 C 63.680 60.540 63.580 60.640 63.680 60.640 H 66.760 C 66.815 60.640 66.860 60.595 66.860 60.540 V 54.180 C 66.860 54.125 66.815 54.080 66.760 54.080 H 63.680 C 63.580 54.080 63.680 54.180 63.680 54.080 V 47.920 C 63.680 47.820 63.580 47.920 63.680 47.920 H 66.760 C 66.815 47.920 66.860 47.875 66.860 47.820 V 41.460 C 66.860 41.405 66.815 41.360 66.760 41.360 H 63.680 C 63.580 41.360 63.680 41.460 63.680 41.360 V 35.200 C 63.680 35.100 63.580 35.200 63.680 35.200 H 66.760 C 66.815 35.200 66.860 35.155 66.860 35.100 V 28.740 C 66.860 28.685 66.815 28.640 66.760 28.640 H 63.680 C 63.580 28.640 63.680 28.740 63.680 28.640 V 19.640 C 63.680 19.585 63.635 19.540 63.580 19.540 H 54.580 C 54.480 19.540 54.580 19.640 54.580 19.540 V 16.460 C 54.580 16.405 54.535 16.360 54.480 16.360 H 48.120 C 48.065 16.360 48.020 16.405 48.020 16.460 V 19.540 C 48.020 19.640 48.120 19.540 48.020 19.540 H 41.860 C 41.760 19.540 41.860 19.640 41.860 19.540 V 16.460 C 41.860 16.405 41.815 16.360 41.760 16.360 H 35.400 C 35.345 16.360 35.300 16.405 35.300 16.460 V 19.540 C 35.300 19.640 35.400 19.540 35.300 19.540 H 29.140 C 29.040 19.540 29.140 19.640 29.140 19.540 V 16.460 C 29.140 16.405 29.095 16.360 29.040 16.360 H 22.680 C 22.625 16.360 22.580 16.405 22.580 16.460 V 19.540 C 22.580 19.640 22.680 19.540 22.580 19.540 H 13.580 C 13.525 19.540 13.480 19.585 13.480 19.640 V 28.640 C 13.480 28.740 13.580 28.640 13.480 28.640 H 10.400 C 10.345 28.640 10.300 28.685 10.300 28.740 V 35.100 C 10.300 35.155 10.345 35.200 10.400 35.200 H 13.480 C 13.580 35.200 13.480 35.100 13.480 35.200 V 41.360 C 13.480 41.460 13.580 41.360 13.480 41.360 H 10.400 C 10.345 41.360 10.300 41.405 10.300 41.460 V 47.820 C 10.300 47.875 10.345 47.920 10.400 47.920 H 13.480 C 13.580 47.920 13.480 47.820 13.480 47.920 V 54.080 C 13.480 54.180 13.580 54.080 13.480 54.080 H 10.400 C 10.345 54.080 10.300 54.125 10.300 54.180 V 60.540 C 10.300 60.595 10.345 60.640 10.400 60.640 H 13.480 C 13.580 60.640 13.480 60.540 13.480 60.640 V 69.640 C 13.480 69.695 13.525 69.740 13.580 69.740 Z" stroke="rgb(0,0,0)" stroke-width="0.20" />
</g>
<g id="p-6" style="fill:none;stroke-linecap:round;stroke-linejoin:round;">
  <path d="M 87.190 69.540 H 84.110 C 84.010 69.540 84.110 69.640 84.110 69.540 V 66.560 C 84.110 66.460 84.010 66.560 84.110 66.560 H 90.270 C 90.370 66.560 90.270 66.460 90.270 66.560 V 69.540 C 90.270 69.640 90.370 69.540 90.270 69.540 H 87.190 Z" stroke="rgb(0,0,255)" stroke-width="0.20" />
  <path d="M 99.910 69.540 H 96.830 C 96.730 69.540 96.830 69.640 96.830 69.540 V 66.560 C 96.830 66.460 96.730 66.560 96.830 66.560 H 102.990 C 103.090 66.560 102.990 66.460 102.990 66.560 V 69.540 C 102.990 69.640 103.090 69.540 102.990 69.540 H 99.910 Z" stroke="rgb(0,0,255)" stroke-width="0.20" />
  <path d="M 112.630 69.540 H 109.550 C 109.450 69.540 109.550 69.640 109.550 69.540 V 66.560 C 109.550 66.460 109.450 66.560 109.550 66.560 H 115.710 C 115.810 66.560 115.710 66.460 115.710 66.560 V 69.540 C 115.710 69.640 115.810 69.540 115.710 69.540 H 112.630 Z" stroke="rgb(0,0,255)" stroke-width="0.20" />
  <path d="M 74.910 72.920 H 124.910 H 131.270 C 131.325 72.920 131.370 72.875 131.370 72.820 V 66.460 V 16.460 V 10.100 C 131.370 10.045 131.325 10.000 131.270 10.000 H 124.910 H 74.910 H 68.550 C 68.495 10.000 68.450 10.045 68.450 10.100 V 16.460 V 66.460 V 72.820 C 68.450 72.875 68.495 72.920 68.550 72.920 H 74.910 Z" stroke="rgb(0,0,0)" stroke-width="0.20" />
  <path d="M 127.990 54.180 V 57.260 C 127.990 57.360 128.090 57.260 127.990 57.260 H 125.010 C 124.910 57.260 125.010 57.360 125.010 57.260 V 51.100 C 125.010 51.000 124.910 51.100 125.010 51.100 H 127.990 C 128.090 51.100 127.990 51.000 127.990 51.100 V 54.180 Z" stroke="rgb(0,0,255)" stroke-width="0.20" />
  <path d="M 127.990 41.460 V 44.540 C 127.990 44.640 128.090 44.540 127.990 44.540 H 125.010 C 124.910 44.540 125.010 44.640 125.010 44.540 V 38.380 C 125.010 38.280 124.910 38.380 125.010 38.380 H 127.990 C 128.090 38.380 127.990 38.280 127.990 38.380 V 41.460 Z" stroke="rgb(0,0,255)" stroke-width="0.20" />
  <path d="M 127.990 28.740 V 31.820 C 127.990 31.920 128.090 31.820 127.990 31.820 H 125.010 C 124.910 31.820 125.010 31.920 125.010 31.820 V 25.660 C 125.010 25.560 124.910 25.660 125.010 25.660 H 127.990 C 128.090 25.660 127.990 25.560 127.990 25.660 V 28.740 Z" stroke="rgb(0,0,255)" stroke-width="0.20" />
  <path d="M 112.630 13.380 H 115.710 C 115.810 13.380 115.710 13.280 115.710 13.380 V 16.360 C 115.710 16.460 115.810 16.360 115.710 16.360 H 109.550 C 109.450 16.360 109.550 16.460 109.550 16.360 V 13.380 C 109.550 13.280 109.450 13.380 109.550 13.380 H 112.630 Z" stroke="rgb(0,0,255)" stroke-width="0.20" />
  <path d="M 99.910 13.380 H 102.990 C 103.090 13.380 102.990 13.280 102.990 13.380 V 16.360 C 102.990 16.460 103.090 16.360 102.990 16.360 H 96.830 C 96.730 16.360 96.830 16.460 96.830 16.360 V 13.380 C 96.830 13.280 96.730 13.380 96.830 13.380 H 99.910 Z" stroke="rgb(0,0,255)" stroke-width="0.20" />
  <path d="M 87.190 13.380 H 90.270 C 90.370 13.380 90.270 13.280 90.270 13.380 V 16.360 C 90.270 16.460 90.370 16.360 90.270 16.360 H 84.110 C 84.010 16.360 84.110 16.460 84.110 16.360 V 13.380 C 84.110 13.280 84.010 13.380 84.110 13.380 H 87.190 Z" stroke="rgb(0,0,255)" stroke-width="0.20" />
  <path d="M 71.830 28.740 V 25.660 C 71.830 25.560 71.730 25.660 71.830 25.660 H 74.810 C 74.910 25.660 74.810 25.560 74.810 25.660 V 31.820 C 74.810 31.920 74.910 31.820 74.810 31.820 H 71.830 C 71.730 31.820 71.830 31.920 71.830 31.820 V 28.740 Z" stroke="rgb(0,0,255)" stroke-width="0.20" />
  <path d="M 71.830 41.460 V 38.380 C 71.830 38.280 71.730 38.380 71.830 38.380 H 74.810 C 74.910 38.380 74.810 38.280 74.810 38.380 V 44.540 C 74.810 44.640 74.910 44.540 74.810 44.540 H 71.830 C 71.730 44.540 71.830 44.640 71.830 44.540 V 41.460 Z" stroke="rgb(0,0,255)" stroke-width="0.20" />
  <path d="M 71.830 54.180 V 51.100 C 71.830 51.000 71.730 51.100 71.830 51.100 H 74.810 C 74.910 51.100 74.810 51.000 74.810 51.100 V 57.260 C 74.810 57.360 74.910 57.260 74.810 57.260 H 71.830 C 71.730 57.260 71.830 57.360 71.830 57.260 V 54.180 Z" stroke="rgb(0,0,255)" stroke-width="0.20" />
</g>
</svg>