<?xml version='1.0' encoding='utf-8'?>
<svg width="135.01mm" height="183.00mm" viewBox="0.0 0.0 135.01 183.00" xmlns="http://www.w3.org/2000/svg" xmlns:dc="http://purl.org/dc/elements/1.1/" xmlns:cc="http://creativecommons.org/ns#" xmlns:rdf="http://www.w3.org/1999/02/22-rdf-syntax-ns#" xmlns:svg="http://www.w3.org/2000/svg" xmlns:xlink="http://www.w3.org/1999/xlink" xmlns:inkscape="http://www.inkscape.org/namespaces/inkscape">
<!--
ElectronicsBox - Closed box with screw on top and mounting holes

Created with Boxes.py (https://festi.info/boxes.py)
Creation date: 2023-03-15 05:43:20
Command line (remove spaces between dashes): boxes ElectronicsBox - -x=50 - -y=50 - -h=30 - -outside=0 - -triangle=10 - -d1=0 - -d2=0 - -d3=0 - -outsidemounts=0 - -thickness=3.18
Url: http://www.festi.info/boxes.py/ElectronicsBox?FingerJoint_angle=90.0&FingerJoint_style=rectangular&FingerJoint_surroundingspaces=2.0&FingerJoint_bottom_lip=0.0&FingerJoint_edge_width=1.0&FingerJoint_extra_length=0.0&FingerJoint_finger=2.0&FingerJoint_play=0.0&FingerJoint_space=2.0&FingerJoint_width=1.0&x=50&y=50&h=30&outside=0&triangle=10&d1=0&d2=0&d3=0&outsidemounts=0&holedist=7.0&thickness=3.18&format=svg&tabs=0.0&qr_code=0&debug=0&labels=0&labels=1&reference=100&inner_corners=loop&burn=0.1&language=en&render=2
Url short: http://www.festi.info/boxes.py/ElectronicsBox?x=50&y=50&h=30&outside=0&triangle=10&d1=0&d2=0&d3=0&outsidemounts=0&thickness=3.18
SettingsUrl: http://www.festi.info/boxes.py/ElectronicsBox?FingerJoint_angle=90.0&FingerJoint_style=rectangular&FingerJoint_surroundingspaces=2.0&FingerJoint_bottom_lip=0.0&FingerJoint_edge_width=1.0&FingerJoint_extra_length=0.0&FingerJoint_finger=2.0&FingerJoint_play=0.0&FingerJoint_space=2.0&FingerJoint_width=1.0&x=50&y=50&h=30&outside=0&triangle=10&d1=0&d2=0&d3=0&outsidemounts=0&holedist=7.0&thickness=3.18&format=svg&tabs=0.0&qr_code=0&debug=0&labels=0&labels=1&reference=100&inner_corners=loop&burn=0.1&language=en&render=2
SettingsUrl short: http://www.festi.info/boxes.py/ElectronicsBox?x=50&y=50&h=30&outside=0&triangle=10&d1=0&d2=0&d3=0&outsidemounts=0&thickness=3.18
-->
<title>ElectronicsBox</title>
<metadata>
<rdf:RDF><cc:Work>
<dc:title>Box - ElectronicsBox</dc:title>
<dc:date>2023-03-15 05:43:20</dc:date>
<dc:source>http://www.festi.info/boxes.py/ElectronicsBox?FingerJoint_angle=90.0&amp;FingerJoint_style=rectangular&amp;FingerJoint_surroundingspaces=2.0&amp;FingerJoint_bottom_lip=0.0&amp;FingerJoint_edge_width=1.0&amp;FingerJoint_extra_length=0.0&amp;FingerJoint_finger=2.0&amp;FingerJoint_play=0.0&amp;FingerJoint_space=2.0&amp;FingerJoint_width=1.0&amp;x=50&amp;y=50&amp;h=30&amp;outside=0&amp;triangle=10&amp;d1=0&amp;d2=0&amp;d3=0&amp;outsidemounts=0&amp;holedist=7.0&amp;thickness=3.18&amp;format=svg&amp;tabs=0.0&amp;qr_code=0&amp;debug=0&amp;labels=0&amp;labels=1&amp;reference=100&amp;inner_corners=loop&amp;burn=0.1&amp;language=en&amp;render=2</dc:source>
<dc:source>http://www.festi.info/boxes.py/ElectronicsBox?x=50&amp;y=50&amp;h=30&amp;outside=0&amp;triangle=10&amp;d1=0&amp;d2=0&amp;d3=0&amp;outsidemounts=0&amp;thickness=3.18</dc:source>
<dc:description>Closed box with screw on top and mounting holes

Created with Boxes.py (https://festi.info/boxes.py)
Command line: boxes ElectronicsBox --FingerJoint_angle=90.0 --FingerJoint_style=rectangular --FingerJoint_surroundingspaces=2.0 --FingerJoint_bottom_lip=0.0 --FingerJoint_edge_width=1.0 --FingerJoint_extra_length=0.0 --FingerJoint_finger=2.0 --FingerJoint_play=0.0 --FingerJoint_space=2.0 --FingerJoint_width=1.0 --x=50 --y=50 --h=30 --outside=0 --triangle=10 --d1=0 --d2=0 --d3=0 --outsidemounts=0 --holedist=7.0 --thickness=3.18 --format=svg --tabs=0.0 --qr_code=0 --debug=0 --labels=0 --labels=1 --reference=100 --inner_corners=loop --burn=0.1
Command line short: boxes ElectronicsBox --x=50 --y=50 --h=30 --outside=0 --triangle=10 --d1=0 --d2=0 --d3=0 --outsidemounts=0 --thickness=3.18
Url: http://www.festi.info/boxes.py/ElectronicsBox?FingerJoint_angle=90.0&amp;FingerJoint_style=rectangular&amp;FingerJoint_surroundingspaces=2.0&amp;FingerJoint_bottom_lip=0.0&amp;FingerJoint_edge_width=1.0&amp;FingerJoint_extra_length=0.0&amp;FingerJoint_finger=2.0&amp;FingerJoint_play=0.0&amp;FingerJoint_space=2.0&amp;FingerJoint_width=1.0&amp;x=50&amp;y=50&amp;h=30&amp;outside=0&amp;triangle=10&amp;d1=0&amp;d2=0&amp;d3=0&amp;outsidemounts=0&amp;holedist=7.0&amp;thickness=3.18&amp;format=svg&amp;tabs=0.0&amp;qr_code=0&amp;debug=0&amp;labels=0&amp;labels=1&amp;reference=100&amp;inner_corners=loop&amp;burn=0.1&amp;language=en&amp;render=2
Url short: http://www.festi.info/boxes.py/ElectronicsBox?x=50&amp;y=50&amp;h=30&amp;outside=0&amp;triangle=10&amp;d1=0&amp;d2=0&amp;d3=0&amp;outsidemounts=0&amp;thickness=3.18
SettingsUrl: http://www.festi.info/boxes.py/ElectronicsBox?FingerJoint_angle=90.0&amp;FingerJoint_style=rectangular&amp;FingerJoint_surroundingspaces=2.0&amp;FingerJoint_bottom_lip=0.0&amp;FingerJoint_edge_width=1.0&amp;FingerJoint_extra_length=0.0&amp;FingerJoint_finger=2.0&amp;FingerJoint_play=0.0&amp;FingerJoint_space=2.0&amp;FingerJoint_width=1.0&amp;x=50&amp;y=50&amp;h=30&amp;outside=0&amp;triangle=10&amp;d1=0&amp;d2=0&amp;d3=0&amp;outsidemounts=0&amp;holedist=7.0&amp;thickness=3.18&amp;format=svg&amp;tabs=0.0&amp;qr_code=0&amp;debug=0&amp;labels=0&amp;labels=1&amp;reference=100&amp;inner_corners=loop&amp;burn=0.1&amp;language=en&amp;render=2
SettingsUrl short: http://www.festi.info/boxes.py/ElectronicsBox?x=50&amp;y=50&amp;h=30&amp;outside=0&amp;triangle=10&amp;d1=0&amp;d2=0&amp;d3=0&amp;outsidemounts=0&amp;thickness=3.18
</dc:description>
</cc:Work></rdf:RDF></metadata>
<g id="p-0" style="fill:none;stroke-linecap:round;stroke-linejoin:round;">
  <path d="M 10.400 173.000 H 110.400 V 163.000 H 10.400 V 173.000 Z" stroke="rgb(0,0,0)" stroke-width="0.20" />
  <text transform="matrix( 1.000 0.000 0.000 1.000 60.400 164.000 )" style="font-family: sans-serif ; font-weight: normal; font-style: normal; fill: rgb(255,0,0)" font-size="8px" text-anchor="middle" dominant-baseline="hanging">100mm, burn:0.10mm</text>
</g>
<g id="p-1" style="fill:none;stroke-linecap:round;stroke-linejoin:round;">
  <path d="M 18.580 127.830 H 15.500 C 15.400 127.830 15.500 127.930 15.500 127.830 V 124.850 C 15.500 124.750 15.400 124.850 15.500 124.850 H 21.660 C 21.760 124.850 21.660 124.750 21.660 124.850 V 127.830 C 21.660 127.930 21.760 127.830 21.660 127.830 H 18.580 Z" stroke="rgb(0,0,255)" stroke-width="0.20" />
  <path d="M 58.580 124.850 H 61.660 C 61.760 124.850 61.660 124.750 61.660 124.850 V 127.830 C 61.660 127.930 61.760 127.830 61.660 127.830 H 55.500 C 55.400 127.830 55.500 127.930 55.500 127.830 V 124.850 C 55.500 124.750 55.400 124.850 55.500 124.850 H 58.580 Z" stroke="rgb(0,0,255)" stroke-width="0.20" />
  <text transform="matrix( 1.000 0.000 0.000 1.000 38.580 139.440 )" style="font-family: sans-serif ; font-weight: normal; font-style: normal; fill: rgb(255,0,0)" font-size="4px" text-anchor="middle" dominant-baseline="hanging">Wall 1</text><path d="M 13.580 158.030 H 22.580 C 22.680 158.030 22.580 157.930 22.580 158.030 V 161.110 C 22.580 161.165 22.625 161.210 22.680 161.210 H 29.040 C 29.095 161.210 29.140 161.165 29.140 161.110 V 158.030 C 29.140 157.930 29.040 158.030 29.140 158.030 H 35.300 C 35.400 158.030 35.300 157.930 35.300 158.030 V 161.110 C 35.300 161.165 35.345 161.210 35.400 161.210 H 41.760 C 41.815 161.210 41.860 161.165 41.860 161.110 V 158.030 C 41.860 157.930 41.760 158.030 41.860 158.030 H 48.020 C 48.120 158.030 48.020 157.930 48.020 158.030 V 161.110 C 48.020 161.165 48.065 161.210 48.120 161.210 H 54.480 C 54.535 161.210 54.580 161.165 54.580 161.110 V 158.030 C 54.580 157.930 54.480 158.030 54.580 158.030 H 63.580 H 66.760 C 66.815 158.030 66.860 157.985 66.860 157.930 V 149.290 C 66.860 149.235 66.815 149.190 66.760 149.190 H 63.680 C 63.580 149.190 63.680 149.290 63.680 149.190 V 143.030 C 63.680 142.930 63.580 143.030 63.680 143.030 H 66.760 C 66.815 143.030 66.860 142.985 66.860 142.930 V 136.570 C 66.860 136.515 66.815 136.470 66.760 136.470 H 63.680 C 63.580 136.470 63.680 136.570 63.680 136.470 V 130.310 C 63.680 130.210 63.580 130.310 63.680 130.310 H 66.760 C 66.815 130.310 66.860 130.265 66.860 130.210 V 121.570 C 66.860 121.515 66.815 121.470 66.760 121.470 H 63.580 H 13.580 H 10.400 C 10.345 121.470 10.300 121.515 10.300 121.570 V 130.210 C 10.300 130.265 10.345 130.310 10.400 130.310 H 13.480 C 13.580 130.310 13.480 130.210 13.480 130.310 V 136.470 C 13.480 136.570 13.580 136.470 13.480 136.470 H 10.400 C 10.345 136.470 10.300 136.515 10.300 136.570 V 142.930 C 10.300 142.985 10.345 143.030 10.400 143.030 H 13.480 C 13.580 143.030 13.480 142.930 13.480 143.030 V 149.190 C 13.480 149.290 13.580 149.190 13.480 149.190 H 10.400 C 10.345 149.190 10.300 149.235 10.300 149.290 V 157.930 C 10.300 157.985 10.345 158.030 10.400 158.030 H 13.580" stroke="rgb(0,0,0)" stroke-width="0.20" />
</g>
<g id="p-2" style="fill:none;stroke-linecap:round;stroke-linejoin:round;">
  <path d="M 76.730 127.830 H 73.650 C 73.550 127.830 73.650 127.930 73.650 127.830 V 124.850 C 73.650 124.750 73.550 124.850 73.650 124.850 H 79.810 C 79.910 124.850 79.810 124.750 79.810 124.850 V 127.830 C 79.810 127.930 79.910 127.830 79.810 127.830 H 76.730 Z" stroke="rgb(0,0,255)" stroke-width="0.20" />
  <path d="M 116.730 124.850 H 119.810 C 119.910 124.850 119.810 124.750 119.810 124.850 V 127.830 C 119.810 127.930 119.910 127.830 119.810 127.830 H 113.650 C 113.550 127.830 113.650 127.930 113.650 127.830 V 124.850 C 113.650 124.750 113.550 124.850 113.650 124.850 H 116.730 Z" stroke="rgb(0,0,255)" stroke-width="0.20" />
  <text transform="matrix( 1.000 0.000 0.000 1.000 96.730 139.440 )" style="font-family: sans-serif ; font-weight: normal; font-style: normal; fill: rgb(255,0,0)" font-size="4px" text-anchor="middle" dominant-baseline="hanging">Wall 2</text><path d="M 71.730 158.030 H 80.730 C 80.830 158.030 80.730 157.930 80.730 158.030 V 161.110 C 80.730 161.165 80.775 161.210 80.830 161.210 H 87.190 C 87.245 161.210 87.290 161.165 87.290 161.110 V 158.030 C 87.290 157.930 87.190 158.030 87.290 158.030 H 93.450 C 93.550 158.030 93.450 157.930 93.450 158.030 V 161.110 C 93.450 161.165 93.495 161.210 93.550 161.210 H 99.910 C 99.965 161.210 100.010 161.165 100.010 161.110 V 158.030 C 100.010 157.930 99.910 158.030 100.010 158.030 H 106.170 C 106.270 158.030 106.170 157.930 106.170 158.030 V 161.110 C 106.170 161.165 106.215 161.210 106.270 161.210 H 112.630 C 112.685 161.210 112.730 161.165 112.730 161.110 V 158.030 C 112.730 157.930 112.630 158.030 112.730 158.030 H 121.730 C 121.785 158.030 121.830 157.985 121.830 157.930 V 149.390 C 121.830 149.290 121.730 149.390 121.830 149.390 H 124.910 C 124.965 149.390 125.010 149.345 125.010 149.290 V 142.930 C 125.010 142.875 124.965 142.830 124.910 142.830 H 121.830 C 121.730 142.830 121.830 142.930 121.830 142.830 V 136.670 C 121.830 136.570 121.730 136.670 121.830 136.670 H 124.910 C 124.965 136.670 125.010 136.625 125.010 136.570 V 130.210 C 125.010 130.155 124.965 130.110 124.910 130.110 H 121.830 C 121.730 130.110 121.830 130.210 121.830 130.110 V 121.570 C 121.830 121.515 121.785 121.470 121.730 121.470 H 71.730 C 71.675 121.470 71.630 121.515 71.630 121.570 V 130.110 C 71.630 130.210 71.730 130.110 71.630 130.110 H 68.550 C 68.495 130.110 68.450 130.155 68.450 130.210 V 136.570 C 68.450 136.625 68.495 136.670 68.550 136.670 H 71.630 C 71.730 136.670 71.630 136.570 71.630 136.670 V 142.830 C 71.630 142.930 71.730 142.830 71.630 142.830 H 68.550 C 68.495 142.830 68.450 142.875 68.450 142.930 V 149.290 C 68.450 149.345 68.495 149.390 68.550 149.390 H 71.630 C 71.730 149.390 71.630 149.290 71.630 149.390 V 157.930 C 71.630 157.985 71.675 158.030 71.730 158.030" stroke="rgb(0,0,0)" stroke-width="0.20" />
</g>
<g id="p-3" style="fill:none;stroke-linecap:round;stroke-linejoin:round;">
  <path d="M 76.730 86.500 H 73.650 C 73.550 86.500 73.650 86.600 73.650 86.500 V 83.520 C 73.650 83.420 73.550 83.520 73.650 83.520 H 79.810 C 79.910 83.520 79.810 83.420 79.810 83.520 V 86.500 C 79.810 86.600 79.910 86.500 79.810 86.500 H 76.730 Z" stroke="rgb(0,0,255)" stroke-width="0.20" />
  <path d="M 116.730 83.520 H 119.810 C 119.910 83.520 119.810 83.420 119.810 83.520 V 86.500 C 119.810 86.600 119.910 86.500 119.810 86.500 H 113.650 C 113.550 86.500 113.650 86.600 113.650 86.500 V 83.520 C 113.650 83.420 113.550 83.520 113.650 83.520 H 116.730 Z" stroke="rgb(0,0,255)" stroke-width="0.20" />
  <text transform="matrix( 1.000 0.000 0.000 1.000 96.730 98.110 )" style="font-family: sans-serif ; font-weight: normal; font-style: normal; fill: rgb(255,0,0)" font-size="4px" text-anchor="middle" dominant-baseline="hanging">Wall 4</text><path d="M 71.730 116.700 H 80.730 C 80.830 116.700 80.730 116.600 80.730 116.700 V 119.780 C 80.730 119.835 80.775 119.880 80.830 119.880 H 87.190 C 87.245 119.880 87.290 119.835 87.290 119.780 V 116.700 C 87.290 116.600 87.190 116.700 87.290 116.700 H 93.450 C 93.550 116.700 93.450 116.600 93.450 116.700 V 119.780 C 93.450 119.835 93.495 119.880 93.550 119.880 H 99.910 C 99.965 119.880 100.010 119.835 100.010 119.780 V 116.700 C 100.010 116.600 99.910 116.700 100.010 116.700 H 106.170 C 106.270 116.700 106.170 116.600 106.170 116.700 V 119.780 C 106.170 119.835 106.215 119.880 106.270 119.880 H 112.630 C 112.685 119.880 112.730 119.835 112.730 119.780 V 116.700 C 112.730 116.600 112.630 116.700 112.730 116.700 H 121.730 C 121.785 116.700 121.830 116.655 121.830 116.600 V 108.060 C 121.830 107.960 121.730 108.060 121.830 108.060 H 124.910 C 124.965 108.060 125.010 108.015 125.010 107.960 V 101.600 C 125.010 101.545 124.965 101.500 124.910 101.500 H 121.830 C 121.730 101.500 121.830 101.600 121.830 101.500 V 95.340 C 121.830 95.240 121.730 95.340 121.830 95.340 H 124.910 C 124.965 95.340 125.010 95.295 125.010 95.240 V 88.880 C 125.010 88.825 124.965 88.780 124.910 88.780 H 121.830 C 121.730 88.780 121.830 88.880 121.830 88.780 V 80.240 C 121.830 80.185 121.785 80.140 121.730 80.140 H 71.730 C 71.675 80.140 71.630 80.185 71.630 80.240 V 88.780 C 71.630 88.880 71.730 88.780 71.630 88.780 H 68.550 C 68.495 88.780 68.450 88.825 68.450 88.880 V 95.240 C 68.450 95.295 68.495 95.340 68.550 95.340 H 71.630 C 71.730 95.340 71.630 95.240 71.630 95.340 V 101.500 C 71.630 101.600 71.730 101.500 71.630 101.500 H 68.550 C 68.495 101.500 68.450 101.545 68.450 101.600 V 107.960 C 68.450 108.015 68.495 108.060 68.550 108.060 H 71.630 C 71.730 108.060 71.630 107.960 71.630 108.060 V 116.600 C 71.630 116.655 71.675 116.700 71.730 116.700" stroke="rgb(0,0,0)" stroke-width="0.20" />
</g>
<g id="p-4" style="fill:none;stroke-linecap:round;stroke-linejoin:round;">
  <path d="M 18.580 86.500 H 15.500 C 15.400 86.500 15.500 86.600 15.500 86.500 V 83.520 C 15.500 83.420 15.400 83.520 15.500 83.520 H 21.660 C 21.760 83.520 21.660 83.420 21.660 83.520 V 86.500 C 21.660 86.600 21.760 86.500 21.660 86.500 H 18.580 Z" stroke="rgb(0,0,255)" stroke-width="0.20" />
  <path d="M 58.580 83.520 H 61.660 C 61.760 83.520 61.660 83.420 61.660 83.520 V 86.500 C 61.660 86.600 61.760 86.500 61.660 86.500 H 55.500 C 55.400 86.500 55.500 86.600 55.500 86.500 V 83.520 C 55.500 83.420 55.400 83.520 55.500 83.520 H 58.580 Z" stroke="rgb(0,0,255)" stroke-width="0.20" />
  <text transform="matrix( 1.000 0.000 0.000 1.000 38.580 98.110 )" style="font-family: sans-serif ; font-weight: normal; font-style: normal; fill: rgb(255,0,0)" font-size="4px" text-anchor="middle" dominant-baseline="hanging">Wall 3</text><path d="M 13.580 116.700 H 22.580 C 22.680 116.700 22.580 116.600 22.580 116.700 V 119.780 C 22.580 119.835 22.625 119.880 22.680 119.880 H 29.040 C 29.095 119.880 29.140 119.835 29.140 119.780 V 116.700 C 29.140 116.600 29.040 116.700 29.140 116.700 H 35.300 C 35.400 116.700 35.300 116.600 35.300 116.700 V 119.780 C 35.300 119.835 35.345 119.880 35.400 119.880 H 41.760 C 41.815 119.880 41.860 119.835 41.860 119.780 V 116.700 C 41.860 116.600 41.760 116.700 41.860 116.700 H 48.020 C 48.120 116.700 48.020 116.600 48.020 116.700 V 119.780 C 48.020 119.835 48.065 119.880 48.120 119.880 H 54.480 C 54.535 119.880 54.580 119.835 54.580 119.780 V 116.700 C 54.580 116.600 54.480 116.700 54.580 116.700 H 63.580 H 66.760 C 66.815 116.700 66.860 116.655 66.860 116.600 V 107.960 C 66.860 107.905 66.815 107.860 66.760 107.860 H 63.680 C 63.580 107.860 63.680 107.960 63.680 107.860 V 101.700 C 63.680 101.600 63.580 101.700 63.680 101.700 H 66.760 C 66.815 101.700 66.860 101.655 66.860 101.600 V 95.240 C 66.860 95.185 66.815 95.140 66.760 95.140 H 63.680 C 63.580 95.140 63.680 95.240 63.680 95.140 V 88.980 C 63.680 88.880 63.580 88.980 63.680 88.980 H 66.760 C 66.815 88.980 66.860 88.935 66.860 88.880 V 80.240 C 66.860 80.185 66.815 80.140 66.760 80.140 H 63.580 H 13.580 H 10.400 C 10.345 80.140 10.300 80.185 10.300 80.240 V 88.880 C 10.300 88.935 10.345 88.980 10.400 88.980 H 13.480 C 13.580 88.980 13.480 88.880 13.480 88.980 V 95.140 C 13.480 95.240 13.580 95.140 13.480 95.140 H 10.400 C 10.345 95.140 10.300 95.185 10.300 95.240 V 101.600 C 10.300 101.655 10.345 101.700 10.400 101.700 H 13.480 C 13.580 101.700 13.480 101.600 13.480 101.700 V 107.860 C 13.480 107.960 13.580 107.860 13.480 107.860 H 10.400 C 10.345 107.860 10.300 107.905 10.300 107.960 V 116.600 C 10.300 116.655 10.345 116.700 10.400 116.700 H 13.580" stroke="rgb(0,0,0)" stroke-width="0.20" />
</g>
<g id="p-5" style="fill:none;stroke-linecap:round;stroke-linejoin:round;">
  <text transform="matrix( 1.000 0.000 0.000 1.000 38.580 48.370 )" style="font-family: sans-serif ; font-weight: normal; font-style: normal; fill: rgb(255,0,0)" font-size="4px" text-anchor="middle" dominant-baseline="hanging">Bottom</text><path d="M 13.580 78.550 H 22.680 C 22.735 78.550 22.780 78.505 22.780 78.450 V 75.370 C 22.780 75.270 22.680 75.370 22.780 75.370 H 28.940 C 29.040 75.370 28.940 75.270 28.940 75.370 V 78.450 C 28.940 78.505 28.985 78.550 29.040 78.550 H 35.400 C 35.455 78.550 35.500 78.505 35.500 78.450 V 75.370 C 35.500 75.270 35.400 75.370 35.500 75.370 H 41.660 C 41.760 75.370 41.660 75.270 41.660 75.370 V 78.450 C 41.660 78.505 41.705 78.550 41.760 78.550 H 48.120 C 48.175 78.550 48.220 78.505 48.220 78.450 V 75.370 C 48.220 75.270 48.120 75.370 48.220 75.370 H 54.380 C 54.480 75.370 54.380 75.270 54.380 75.370 V 78.450 C 54.380 78.505 54.425 78.550 54.480 78.550 H 63.580 H 66.760 C 66.815 78.550 66.860 78.505 66.860 78.450 V 75.270 V 66.170 C 66.860 66.115 66.815 66.070 66.760 66.070 H 63.680 C 63.580 66.070 63.680 66.170 63.680 66.070 V 59.910 C 63.680 59.810 63.580 59.910 63.680 59.910 H 66.760 C 66.815 59.910 66.860 59.865 66.860 59.810 V 53.450 C 66.860 53.395 66.815 53.350 66.760 53.350 H 63.680 C 63.580 53.350 63.680 53.450 63.680 53.350 V 47.190 C 63.680 47.090 63.580 47.190 63.680 47.190 H 66.760 C 66.815 47.190 66.860 47.145 66.860 47.090 V 40.730 C 66.860 40.675 66.815 40.630 66.760 40.630 H 63.680 C 63.580 40.630 63.680 40.730 63.680 40.630 V 34.470 C 63.680 34.370 63.580 34.470 63.680 34.470 H 66.760 C 66.815 34.470 66.860 34.425 66.860 34.370 V 25.270 V 22.090 C 66.860 22.035 66.815 21.990 66.760 21.990 H 63.580 H 54.480 C 54.425 21.990 54.380 22.035 54.380 22.090 V 25.170 C 54.380 25.270 54.480 25.170 54.380 25.170 H 48.220 C 48.120 25.170 48.220 25.270 48.220 25.170 V 22.090 C 48.220 22.035 48.175 21.990 48.120 21.990 H 41.760 C 41.705 21.990 41.660 22.035 41.660 22.090 V 25.170 C 41.660 25.270 41.760 25.170 41.660 25.170 H 35.500 C 35.400 25.170 35.500 25.270 35.500 25.170 V 22.090 C 35.500 22.035 35.455 21.990 35.400 21.990 H 29.040 C 28.985 21.990 28.940 22.035 28.940 22.090 V 25.170 C 28.940 25.270 29.040 25.170 28.940 25.170 H 22.780 C 22.680 25.170 22.780 25.270 22.780 25.170 V 22.090 C 22.780 22.035 22.735 21.990 22.680 21.990 H 13.580 H 10.400 C 10.345 21.990 10.300 22.035 10.300 22.090 V 25.270 V 34.370 C 10.300 34.425 10.345 34.470 10.400 34.470 H 13.480 C 13.580 34.470 13.480 34.370 13.480 34.470 V 40.630 C 13.480 40.730 13.580 40.630 13.480 40.630 H 10.400 C 10.345 40.630 10.300 40.675 10.300 40.730 V 47.090 C 10.300 47.145 10.345 47.190 10.400 47.190 H 13.480 C 13.580 47.190 13.480 47.090 13.480 47.190 V 53.350 C 13.480 53.450 13.580 53.350 13.480 53.350 H 10.400 C 10.345 53.350 10.300 53.395 10.300 53.450 V 59.810 C 10.300 59.865 10.345 59.910 10.400 59.910 H 13.480 C 13.580 59.910 13.480 59.810 13.480 59.910 V 66.070 C 13.480 66.170 13.580 66.070 13.480 66.070 H 10.400 C 10.345 66.070 10.300 66.115 10.300 66.170 V 75.270 V 78.450 C 10.300 78.505 10.345 78.550 10.400 78.550 H 13.580" stroke="rgb(0,0,0)" stroke-width="0.20" />
</g>
<g id="p-6" style="fill:none;stroke-linecap:round;stroke-linejoin:round;">
  <text transform="matrix( 1.000 0.000 0.000 1.000 93.550 51.550 )" style="font-family: sans-serif ; font-weight: normal; font-style: normal; fill: rgb(255,0,0)" font-size="4px" text-anchor="middle" dominant-baseline="hanging">Top</text><path d="M 68.550 78.550 H 118.550 C 118.605 78.550 118.650 78.505 118.650 78.450 V 28.450 C 118.650 28.395 118.605 28.350 118.550 28.350 H 68.550 C 68.495 28.350 68.450 28.395 68.450 28.450 V 78.450 C 68.450 78.505 68.495 78.550 68.550 78.550" stroke="rgb(0,0,0)" stroke-width="0.20" />
</g>
<g id="p-7" style="fill:none;stroke-linecap:round;stroke-linejoin:round;">
  <path d="M 76.793 23.580 H 78.513 C 78.613 23.580 78.513 23.480 78.513 23.580 V 26.660 C 78.513 26.715 78.558 26.760 78.613 26.760 H 84.973 C 85.028 26.760 85.073 26.715 85.073 26.660 V 23.580 C 85.073 23.480 84.973 23.580 85.073 23.580 H 86.793 C 86.848 23.580 86.893 23.535 86.893 23.480 V 21.760 C 86.893 21.660 86.793 21.760 86.893 21.760 H 89.973 C 90.028 21.760 90.073 21.715 90.073 21.660 V 15.300 C 90.073 15.245 90.028 15.200 89.973 15.200 H 86.893 C 86.793 15.200 86.893 15.300 86.893 15.200 V 13.480 C 86.893 13.425 86.848 13.380 86.793 13.380 C 86.766 13.380 86.741 13.391 86.722 13.409 L 76.722 23.409 C 76.703 23.428 76.693 23.453 76.693 23.480 C 76.693 23.535 76.738 23.580 76.793 23.580 Z" stroke="rgb(0,0,0)" stroke-width="0.20" />
  <path d="M 81.730 13.180 H 80.010 C 79.910 13.180 80.010 13.280 80.010 13.180 V 10.100 C 80.010 10.045 79.965 10.000 79.910 10.000 H 73.550 C 73.495 10.000 73.450 10.045 73.450 10.100 V 13.180 C 73.450 13.280 73.550 13.180 73.450 13.180 H 71.730 C 71.675 13.180 71.630 13.225 71.630 13.280 V 15.000 C 71.630 15.100 71.730 15.000 71.630 15.000 H 68.550 C 68.495 15.000 68.450 15.045 68.450 15.100 V 21.460 C 68.450 21.515 68.495 21.560 68.550 21.560 H 71.630 C 71.730 21.560 71.630 21.460 71.630 21.560 V 23.280 C 71.630 23.335 71.675 23.380 71.730 23.380 C 71.757 23.380 71.782 23.369 71.801 23.351 L 81.801 13.351 C 81.819 13.332 81.830 13.307 81.830 13.280 C 81.830 13.225 81.785 13.180 81.730 13.180 Z" stroke="rgb(0,0,0)" stroke-width="0.20" />
  <path d="M 100.006 23.580 H 101.726 C 101.826 23.580 101.726 23.480 101.726 23.580 V 26.660 C 101.726 26.715 101.771 26.760 101.826 26.760 H 108.186 C 108.241 26.760 108.286 26.715 108.286 26.660 V 23.580 C 108.286 23.480 108.186 23.580 108.286 23.580 H 110.006 C 110.061 23.580 110.106 23.535 110.106 23.480 V 21.760 C 110.106 21.660 110.006 21.760 110.106 21.760 H 113.186 C 113.241 21.760 113.286 21.715 113.286 21.660 V 15.300 C 113.286 15.245 113.241 15.200 113.186 15.200 H 110.106 C 110.006 15.200 110.106 15.300 110.106 15.200 V 13.480 C 110.106 13.425 110.061 13.380 110.006 13.380 C 109.979 13.380 109.954 13.391 109.935 13.409 L 99.935 23.409 C 99.916 23.428 99.906 23.453 99.906 23.480 C 99.906 23.535 99.951 23.580 100.006 23.580 Z" stroke="rgb(0,0,0)" stroke-width="0.20" />
  <path d="M 104.943 13.180 H 103.223 C 103.123 13.180 103.223 13.280 103.223 13.180 V 10.100 C 103.223 10.045 103.178 10.000 103.123 10.000 H 96.763 C 96.708 10.000 96.663 10.045 96.663 10.100 V 13.180 C 96.663 13.280 96.763 13.180 96.663 13.180 H 94.943 C 94.888 13.180 94.843 13.225 94.843 13.280 V 15.000 C 94.843 15.100 94.943 15.000 94.843 15.000 H 91.763 C 91.708 15.000 91.663 15.045 91.663 15.100 V 21.460 C 91.663 21.515 91.708 21.560 91.763 21.560 H 94.843 C 94.943 21.560 94.843 21.460 94.843 21.560 V 23.280 C 94.843 23.335 94.888 23.380 94.943 23.380 C 94.969 23.380 94.995 23.369 95.014 23.351 L 105.014 13.351 C 105.032 13.332 105.043 13.307 105.043 13.280 C 105.043 13.225 104.998 13.180 104.943 13.180 Z" stroke="rgb(0,0,0)" stroke-width="0.20" />
</g>
</svg>