<?xml version='1.0' encoding='utf-8'?>
<svg width="135.09mm" height="183.30mm" viewBox="0.0 0.0 135.09 183.30" xmlns="http://www.w3.org/2000/svg" xmlns:dc="http://purl.org/dc/elements/1.1/" xmlns:cc="http://creativecommons.org/ns#" xmlns:rdf="http://www.w3.org/1999/02/22-rdf-syntax-ns#" xmlns:svg="http://www.w3.org/2000/svg" xmlns:xlink="http://www.w3.org/1999/xlink" xmlns:inkscape="http://www.inkscape.org/namespaces/inkscape">
<!--
ElectronicsBox - Closed box with screw on top and mounting holes

Created with Boxes.py (https://festi.info/boxes.py)
Creation date: 2023-03-15 18:08:45
Command line (remove spaces between dashes): boxes ElectronicsBox - -x=50 - -y=50 - -h=30 - -outside=0 - -triangle=10 - -d1=0 - -d2=0 - -d3=0 - -outsidemounts=0 - -thickness=3.18 - -burn=0.125
Url: http://www.festi.info/boxes.py/ElectronicsBox?FingerJoint_angle=90.0&FingerJoint_style=rectangular&FingerJoint_surroundingspaces=2.0&FingerJoint_bottom_lip=0.0&FingerJoint_edge_width=1.0&FingerJoint_extra_length=0.0&FingerJoint_finger=2.0&FingerJoint_play=0.0&FingerJoint_space=2.0&FingerJoint_width=1.0&x=50&y=50&h=30&outside=0&triangle=10&d1=0&d2=0&d3=0&outsidemounts=0&holedist=7.0&thickness=3.18&format=svg&tabs=0.0&qr_code=0&debug=0&labels=0&labels=1&reference=100&inner_corners=loop&burn=0.125&language=en&render=2
Url short: http://www.festi.info/boxes.py/ElectronicsBox?x=50&y=50&h=30&outside=0&triangle=10&d1=0&d2=0&d3=0&outsidemounts=0&thickness=3.18&burn=0.125
SettingsUrl: http://www.festi.info/boxes.py/ElectronicsBox?FingerJoint_angle=90.0&FingerJoint_style=rectangular&FingerJoint_surroundingspaces=2.0&FingerJoint_bottom_lip=0.0&FingerJoint_edge_width=1.0&FingerJoint_extra_length=0.0&FingerJoint_finger=2.0&FingerJoint_play=0.0&FingerJoint_space=2.0&FingerJoint_width=1.0&x=50&y=50&h=30&outside=0&triangle=10&d1=0&d2=0&d3=0&outsidemounts=0&holedist=7.0&thickness=3.18&format=svg&tabs=0.0&qr_code=0&debug=0&labels=0&labels=1&reference=100&inner_corners=loop&burn=0.125&language=en&render=2
SettingsUrl short: http://www.festi.info/boxes.py/ElectronicsBox?x=50&y=50&h=30&outside=0&triangle=10&d1=0&d2=0&d3=0&outsidemounts=0&thickness=3.18&burn=0.125
-->
<title>ElectronicsBox</title>
<metadata>
<rdf:RDF><cc:Work>
<dc:title>Box - ElectronicsBox</dc:title>
<dc:date>2023-03-15 18:08:45</dc:date>
<dc:source>http://www.festi.info/boxes.py/ElectronicsBox?FingerJoint_angle=90.0&amp;FingerJoint_style=rectangular&amp;FingerJoint_surroundingspaces=2.0&amp;FingerJoint_bottom_lip=0.0&amp;FingerJoint_edge_width=1.0&amp;FingerJoint_extra_length=0.0&amp;FingerJoint_finger=2.0&amp;FingerJoint_play=0.0&amp;FingerJoint_space=2.0&amp;FingerJoint_width=1.0&amp;x=50&amp;y=50&amp;h=30&amp;outside=0&amp;triangle=10&amp;d1=0&amp;d2=0&amp;d3=0&amp;outsidemounts=0&amp;holedist=7.0&amp;thickness=3.18&amp;format=svg&amp;tabs=0.0&amp;qr_code=0&amp;debug=0&amp;labels=0&amp;labels=1&amp;reference=100&amp;inner_corners=loop&amp;burn=0.125&amp;language=en&amp;render=2</dc:source>
<dc:source>http://www.festi.info/boxes.py/ElectronicsBox?x=50&amp;y=50&amp;h=30&amp;outside=0&amp;triangle=10&amp;d1=0&amp;d2=0&amp;d3=0&amp;outsidemounts=0&amp;thickness=3.18&amp;burn=0.125</dc:source>
<dc:description>Closed box with screw on top and mounting holes

Created with Boxes.py (https://festi.info/boxes.py)
Command line: boxes ElectronicsBox --FingerJoint_angle=90.0 --FingerJoint_style=rectangular --FingerJoint_surroundingspaces=2.0 --FingerJoint_bottom_lip=0.0 --FingerJoint_edge_width=1.0 --FingerJoint_extra_length=0.0 --FingerJoint_finger=2.0 --FingerJoint_play=0.0 --FingerJoint_space=2.0 --FingerJoint_width=1.0 --x=50 --y=50 --h=30 --outside=0 --triangle=10 --d1=0 --d2=0 --d3=0 --outsidemounts=0 --holedist=7.0 --thickness=3.18 --format=svg --tabs=0.0 --qr_code=0 --debug=0 --labels=0 --labels=1 --reference=100 --inner_corners=loop --burn=0.125
Command line short: boxes ElectronicsBox --x=50 --y=50 --h=30 --outside=0 --triangle=10 --d1=0 --d2=0 --d3=0 --outsidemounts=0 --thickness=3.18 --burn=0.125
Url: http://www.festi.info/boxes.py/ElectronicsBox?FingerJoint_angle=90.0&amp;FingerJoint_style=rectangular&amp;FingerJoint_surroundingspaces=2.0&amp;FingerJoint_bottom_lip=0.0&amp;FingerJoint_edge_width=1.0&amp;FingerJoint_extra_length=0.0&amp;FingerJoint_finger=2.0&amp;FingerJoint_play=0.0&amp;FingerJoint_space=2.0&amp;FingerJoint_width=1.0&amp;x=50&amp;y=50&amp;h=30&amp;outside=0&amp;triangle=10&amp;d1=0&amp;d2=0&amp;d3=0&amp;outsidemounts=0&amp;holedist=7.0&amp;thickness=3.18&amp;format=svg&amp;tabs=0.0&amp;qr_code=0&amp;debug=0&amp;labels=0&amp;labels=1&amp;reference=100&amp;inner_corners=loop&amp;burn=0.125&amp;language=en&amp;render=2
Url short: http://www.festi.info/boxes.py/ElectronicsBox?x=50&amp;y=50&amp;h=30&amp;outside=0&amp;triangle=10&amp;d1=0&amp;d2=0&amp;d3=0&amp;outsidemounts=0&amp;thickness=3.18&amp;burn=0.125
SettingsUrl: http://www.festi.info/boxes.py/ElectronicsBox?FingerJoint_angle=90.0&amp;FingerJoint_style=rectangular&amp;FingerJoint_surroundingspaces=2.0&amp;FingerJoint_bottom_lip=0.0&amp;FingerJoint_edge_width=1.0&amp;FingerJoint_extra_length=0.0&amp;FingerJoint_finger=2.0&amp;FingerJoint_play=0.0&amp;FingerJoint_space=2.0&amp;FingerJoint_width=1.0&amp;x=50&amp;y=50&amp;h=30&amp;outside=0&amp;triangle=10&amp;d1=0&amp;d2=0&amp;d3=0&amp;outsidemounts=0&amp;holedist=7.0&amp;thickness=3.18&amp;format=svg&amp;tabs=0.0&amp;qr_code=0&amp;debug=0&amp;labels=0&amp;labels=1&amp;reference=100&amp;inner_corners=loop&amp;burn=0.125&amp;language=en&amp;render=2
SettingsUrl short: http://www.festi.info/boxes.py/ElectronicsBox?x=50&amp;y=50&amp;h=30&amp;outside=0&amp;triangle=10&amp;d1=0&amp;d2=0&amp;d3=0&amp;outsidemounts=0&amp;thickness=3.18&amp;burn=0.125
</dc:description>
</cc:Work></rdf:RDF></metadata>
<g id="p-0" style="fill:none;stroke-linecap:round;stroke-linejoin:round;">
  <path d="M 10.400 173.300 H 110.400 V 163.300 H 10.400 V 173.300 Z" stroke="rgb(0,0,0)" stroke-width="0.25" />
  <text transform="matrix( 1.000 0.000 0.000 1.000 60.400 164.300 )" style="font-family: sans-serif ; font-weight: normal; font-style: normal; fill: rgb(255,0,0)" font-size="8px" text-anchor="middle" dominant-baseline="hanging">100mm, burn:0.12mm</text>
</g>
<g id="p-1" style="fill:none;stroke-linecap:round;stroke-linejoin:round;">
  <path d="M 18.580 128.030 H 15.525 C 15.400 128.030 15.525 128.155 15.525 128.030 V 125.100 C 15.525 124.975 15.400 125.100 15.525 125.100 H 21.635 C 21.760 125.100 21.635 124.975 21.635 125.100 V 128.030 C 21.635 128.155 21.760 128.030 21.635 128.030 H 18.580 Z" stroke="rgb(0,0,255)" stroke-width="0.25" />
  <path d="M 58.580 125.100 H 61.635 C 61.760 125.100 61.635 124.975 61.635 125.100 V 128.030 C 61.635 128.155 61.760 128.030 61.635 128.030 H 55.525 C 55.400 128.030 55.525 128.155 55.525 128.030 V 125.100 C 55.525 124.975 55.400 125.100 55.525 125.100 H 58.580 Z" stroke="rgb(0,0,255)" stroke-width="0.25" />
  <text transform="matrix( 1.000 0.000 0.000 1.000 38.580 139.690 )" style="font-family: sans-serif ; font-weight: normal; font-style: normal; fill: rgb(255,0,0)" font-size="4px" text-anchor="middle" dominant-baseline="hanging">Wall 1</text><path d="M 13.580 158.280 H 22.555 C 22.680 158.280 22.555 158.155 22.555 158.280 V 161.335 C 22.555 161.404 22.611 161.460 22.680 161.460 H 29.040 C 29.109 161.460 29.165 161.404 29.165 161.335 V 158.280 C 29.165 158.155 29.040 158.280 29.165 158.280 H 35.275 C 35.400 158.280 35.275 158.155 35.275 158.280 V 161.335 C 35.275 161.404 35.331 161.460 35.400 161.460 H 41.760 C 41.829 161.460 41.885 161.404 41.885 161.335 V 158.280 C 41.885 158.155 41.760 158.280 41.885 158.280 H 47.995 C 48.120 158.280 47.995 158.155 47.995 158.280 V 161.335 C 47.995 161.404 48.051 161.460 48.120 161.460 H 54.480 C 54.549 161.460 54.605 161.404 54.605 161.335 V 158.280 C 54.605 158.155 54.480 158.280 54.605 158.280 H 63.580 H 66.760 C 66.829 158.280 66.885 158.224 66.885 158.155 V 149.515 C 66.885 149.446 66.829 149.390 66.760 149.390 H 63.705 C 63.580 149.390 63.705 149.515 63.705 149.390 V 143.280 C 63.705 143.155 63.580 143.280 63.705 143.280 H 66.760 C 66.829 143.280 66.885 143.224 66.885 143.155 V 136.795 C 66.885 136.726 66.829 136.670 66.760 136.670 H 63.705 C 63.580 136.670 63.705 136.795 63.705 136.670 V 130.560 C 63.705 130.435 63.580 130.560 63.705 130.560 H 66.760 C 66.829 130.560 66.885 130.504 66.885 130.435 V 121.795 C 66.885 121.726 66.829 121.670 66.760 121.670 H 63.580 H 13.580 H 10.400 C 10.331 121.670 10.275 121.726 10.275 121.795 V 130.435 C 10.275 130.504 10.331 130.560 10.400 130.560 H 13.455 C 13.580 130.560 13.455 130.435 13.455 130.560 V 136.670 C 13.455 136.795 13.580 136.670 13.455 136.670 H 10.400 C 10.331 136.670 10.275 136.726 10.275 136.795 V 143.155 C 10.275 143.224 10.331 143.280 10.400 143.280 H 13.455 C 13.580 143.280 13.455 143.155 13.455 143.280 V 149.390 C 13.455 149.515 13.580 149.390 13.455 149.390 H 10.400 C 10.331 149.390 10.275 149.446 10.275 149.515 V 158.155 C 10.275 158.224 10.331 158.280 10.400 158.280 H 13.580" stroke="rgb(0,0,0)" stroke-width="0.25" />
</g>
<g id="p-2" style="fill:none;stroke-linecap:round;stroke-linejoin:round;">
  <path d="M 76.780 128.030 H 73.725 C 73.600 128.030 73.725 128.155 73.725 128.030 V 125.100 C 73.725 124.975 73.600 125.100 73.725 125.100 H 79.835 C 79.960 125.100 79.835 124.975 79.835 125.100 V 128.030 C 79.835 128.155 79.960 128.030 79.835 128.030 H 76.780 Z" stroke="rgb(0,0,255)" stroke-width="0.25" />
  <path d="M 116.780 125.100 H 119.835 C 119.960 125.100 119.835 124.975 119.835 125.100 V 128.030 C 119.835 128.155 119.960 128.030 119.835 128.030 H 113.725 C 113.600 128.030 113.725 128.155 113.725 128.030 V 125.100 C 113.725 124.975 113.600 125.100 113.725 125.100 H 116.780 Z" stroke="rgb(0,0,255)" stroke-width="0.25" />
  <text transform="matrix( 1.000 0.000 0.000 1.000 96.780 139.690 )" style="font-family: sans-serif ; font-weight: normal; font-style: normal; fill: rgb(255,0,0)" font-size="4px" text-anchor="middle" dominant-baseline="hanging">Wall 2</text><path d="M 71.780 158.280 H 80.755 C 80.880 158.280 80.755 158.155 80.755 158.280 V 161.335 C 80.755 161.404 80.811 161.460 80.880 161.460 H 87.240 C 87.309 161.460 87.365 161.404 87.365 161.335 V 158.280 C 87.365 158.155 87.240 158.280 87.365 158.280 H 93.475 C 93.600 158.280 93.475 158.155 93.475 158.280 V 161.335 C 93.475 161.404 93.531 161.460 93.600 161.460 H 99.960 C 100.029 161.460 100.085 161.404 100.085 161.335 V 158.280 C 100.085 158.155 99.960 158.280 100.085 158.280 H 106.195 C 106.320 158.280 106.195 158.155 106.195 158.280 V 161.335 C 106.195 161.404 106.251 161.460 106.320 161.460 H 112.680 C 112.749 161.460 112.805 161.404 112.805 161.335 V 158.280 C 112.805 158.155 112.680 158.280 112.805 158.280 H 121.780 C 121.849 158.280 121.905 158.224 121.905 158.155 V 149.640 C 121.905 149.515 121.780 149.640 121.905 149.640 H 124.960 C 125.029 149.640 125.085 149.584 125.085 149.515 V 143.155 C 125.085 143.086 125.029 143.030 124.960 143.030 H 121.905 C 121.780 143.030 121.905 143.155 121.905 143.030 V 136.920 C 121.905 136.795 121.780 136.920 121.905 136.920 H 124.960 C 125.029 136.920 125.085 136.864 125.085 136.795 V 130.435 C 125.085 130.366 125.029 130.310 124.960 130.310 H 121.905 C 121.780 130.310 121.905 130.435 121.905 130.310 V 121.795 C 121.905 121.726 121.849 121.670 121.780 121.670 H 71.780 C 71.711 121.670 71.655 121.726 71.655 121.795 V 130.310 C 71.655 130.435 71.780 130.310 71.655 130.310 H 68.600 C 68.531 130.310 68.475 130.366 68.475 130.435 V 136.795 C 68.475 136.864 68.531 136.920 68.600 136.920 H 71.655 C 71.780 136.920 71.655 136.795 71.655 136.920 V 143.030 C 71.655 143.155 71.780 143.030 71.655 143.030 H 68.600 C 68.531 143.030 68.475 143.086 68.475 143.155 V 149.515 C 68.475 149.584 68.531 149.640 68.600 149.640 H 71.655 C 71.780 149.640 71.655 149.515 71.655 149.640 V 158.155 C 71.655 158.224 71.711 158.280 71.780 158.280" stroke="rgb(0,0,0)" stroke-width="0.25" />
</g>
<g id="p-3" style="fill:none;stroke-linecap:round;stroke-linejoin:round;">
  <path d="M 76.780 86.650 H 73.725 C 73.600 86.650 73.725 86.775 73.725 86.650 V 83.720 C 73.725 83.595 73.600 83.720 73.725 83.720 H 79.835 C 79.960 83.720 79.835 83.595 79.835 83.720 V 86.650 C 79.835 86.775 79.960 86.650 79.835 86.650 H 76.780 Z" stroke="rgb(0,0,255)" stroke-width="0.25" />
  <path d="M 116.780 83.720 H 119.835 C 119.960 83.720 119.835 83.595 119.835 83.720 V 86.650 C 119.835 86.775 119.960 86.650 119.835 86.650 H 113.725 C 113.600 86.650 113.725 86.775 113.725 86.650 V 83.720 C 113.725 83.595 113.600 83.720 113.725 83.720 H 116.780 Z" stroke="rgb(0,0,255)" stroke-width="0.25" />
  <text transform="matrix( 1.000 0.000 0.000 1.000 96.780 98.310 )" style="font-family: sans-serif ; font-weight: normal; font-style: normal; fill: rgb(255,0,0)" font-size="4px" text-anchor="middle" dominant-baseline="hanging">Wall 4</text><path d="M 71.780 116.900 H 80.755 C 80.880 116.900 80.755 116.775 80.755 116.900 V 119.955 C 80.755 120.024 80.811 120.080 80.880 120.080 H 87.240 C 87.309 120.080 87.365 120.024 87.365 119.955 V 116.900 C 87.365 116.775 87.240 116.900 87.365 116.900 H 93.475 C 93.600 116.900 93.475 116.775 93.475 116.900 V 119.955 C 93.475 120.024 93.531 120.080 93.600 120.080 H 99.960 C 100.029 120.080 100.085 120.024 100.085 119.955 V 116.900 C 100.085 116.775 99.960 116.900 100.085 116.900 H 106.195 C 106.320 116.900 106.195 116.775 106.195 116.900 V 119.955 C 106.195 120.024 106.251 120.080 106.320 120.080 H 112.680 C 112.749 120.080 112.805 120.024 112.805 119.955 V 116.900 C 112.805 116.775 112.680 116.900 112.805 116.900 H 121.780 C 121.849 116.900 121.905 116.844 121.905 116.775 V 108.260 C 121.905 108.135 121.780 108.260 121.905 108.260 H 124.960 C 125.029 108.260 125.085 108.204 125.085 108.135 V 101.775 C 125.085 101.706 125.029 101.650 124.960 101.650 H 121.905 C 121.780 101.650 121.905 101.775 121.905 101.650 V 95.540 C 121.905 95.415 121.780 95.540 121.905 95.540 H 124.960 C 125.029 95.540 125.085 95.484 125.085 95.415 V 89.055 C 125.085 88.986 125.029 88.930 124.960 88.930 H 121.905 C 121.780 88.930 121.905 89.055 121.905 88.930 V 80.415 C 121.905 80.346 121.849 80.290 121.780 80.290 H 71.780 C 71.711 80.290 71.655 80.346 71.655 80.415 V 88.930 C 71.655 89.055 71.780 88.930 71.655 88.930 H 68.600 C 68.531 88.930 68.475 88.986 68.475 89.055 V 95.415 C 68.475 95.484 68.531 95.540 68.600 95.540 H 71.655 C 71.780 95.540 71.655 95.415 71.655 95.540 V 101.650 C 71.655 101.775 71.780 101.650 71.655 101.650 H 68.600 C 68.531 101.650 68.475 101.706 68.475 101.775 V 108.135 C 68.475 108.204 68.531 108.260 68.600 108.260 H 71.655 C 71.780 108.260 71.655 108.135 71.655 108.260 V 116.775 C 71.655 116.844 71.711 116.900 71.780 116.900" stroke="rgb(0,0,0)" stroke-width="0.25" />
</g>
<g id="p-4" style="fill:none;stroke-linecap:round;stroke-linejoin:round;">
  <path d="M 18.580 86.650 H 15.525 C 15.400 86.650 15.525 86.775 15.525 86.650 V 83.720 C 15.525 83.595 15.400 83.720 15.525 83.720 H 21.635 C 21.760 83.720 21.635 83.595 21.635 83.720 V 86.650 C 21.635 86.775 21.760 86.650 21.635 86.650 H 18.580 Z" stroke="rgb(0,0,255)" stroke-width="0.25" />
  <path d="M 58.580 83.720 H 61.635 C 61.760 83.720 61.635 83.595 61.635 83.720 V 86.650 C 61.635 86.775 61.760 86.650 61.635 86.650 H 55.525 C 55.400 86.650 55.525 86.775 55.525 86.650 V 83.720 C 55.525 83.595 55.400 83.720 55.525 83.720 H 58.580 Z" stroke="rgb(0,0,255)" stroke-width="0.25" />
  <text transform="matrix( 1.000 0.000 0.000 1.000 38.580 98.310 )" style="font-family: sans-serif ; font-weight: normal; font-style: normal; fill: rgb(255,0,0)" font-size="4px" text-anchor="middle" dominant-baseline="hanging">Wall 3</text><path d="M 13.580 116.900 H 22.555 C 22.680 116.900 22.555 116.775 22.555 116.900 V 119.955 C 22.555 120.024 22.611 120.080 22.680 120.080 H 29.040 C 29.109 120.080 29.165 120.024 29.165 119.955 V 116.900 C 29.165 116.775 29.040 116.900 29.165 116.900 H 35.275 C 35.400 116.900 35.275 116.775 35.275 116.900 V 119.955 C 35.275 120.024 35.331 120.080 35.400 120.080 H 41.760 C 41.829 120.080 41.885 120.024 41.885 119.955 V 116.900 C 41.885 116.775 41.760 116.900 41.885 116.900 H 47.995 C 48.120 116.900 47.995 116.775 47.995 116.900 V 119.955 C 47.995 120.024 48.051 120.080 48.120 120.080 H 54.480 C 54.549 120.080 54.605 120.024 54.605 119.955 V 116.900 C 54.605 116.775 54.480 116.900 54.605 116.900 H 63.580 H 66.760 C 66.829 116.900 66.885 116.844 66.885 116.775 V 108.135 C 66.885 108.066 66.829 108.010 66.760 108.010 H 63.705 C 63.580 108.010 63.705 108.135 63.705 108.010 V 101.900 C 63.705 101.775 63.580 101.900 63.705 101.900 H 66.760 C 66.829 101.900 66.885 101.844 66.885 101.775 V 95.415 C 66.885 95.346 66.829 95.290 66.760 95.290 H 63.705 C 63.580 95.290 63.705 95.415 63.705 95.290 V 89.180 C 63.705 89.055 63.580 89.180 63.705 89.180 H 66.760 C 66.829 89.180 66.885 89.124 66.885 89.055 V 80.415 C 66.885 80.346 66.829 80.290 66.760 80.290 H 63.580 H 13.580 H 10.400 C 10.331 80.290 10.275 80.346 10.275 80.415 V 89.055 C 10.275 89.124 10.331 89.180 10.400 89.180 H 13.455 C 13.580 89.180 13.455 89.055 13.455 89.180 V 95.290 C 13.455 95.415 13.580 95.290 13.455 95.290 H 10.400 C 10.331 95.290 10.275 95.346 10.275 95.415 V 101.775 C 10.275 101.844 10.331 101.900 10.400 101.900 H 13.455 C 13.580 101.900 13.455 101.775 13.455 101.900 V 108.010 C 13.455 108.135 13.580 108.010 13.455 108.010 H 10.400 C 10.331 108.010 10.275 108.066 10.275 108.135 V 116.775 C 10.275 116.844 10.331 116.900 10.400 116.900 H 13.580" stroke="rgb(0,0,0)" stroke-width="0.25" />
</g>
<g id="p-5" style="fill:none;stroke-linecap:round;stroke-linejoin:round;">
  <text transform="matrix( 1.000 0.000 0.000 1.000 38.580 48.520 )" style="font-family: sans-serif ; font-weight: normal; font-style: normal; fill: rgb(255,0,0)" font-size="4px" text-anchor="middle" dominant-baseline="hanging">Bottom</text><path d="M 13.580 78.700 H 22.680 C 22.749 78.700 22.805 78.644 22.805 78.575 V 75.520 C 22.805 75.395 22.680 75.520 22.805 75.520 H 28.915 C 29.040 75.520 28.915 75.395 28.915 75.520 V 78.575 C 28.915 78.644 28.971 78.700 29.040 78.700 H 35.400 C 35.469 78.700 35.525 78.644 35.525 78.575 V 75.520 C 35.525 75.395 35.400 75.520 35.525 75.520 H 41.635 C 41.760 75.520 41.635 75.395 41.635 75.520 V 78.575 C 41.635 78.644 41.691 78.700 41.760 78.700 H 48.120 C 48.189 78.700 48.245 78.644 48.245 78.575 V 75.520 C 48.245 75.395 48.120 75.520 48.245 75.520 H 54.355 C 54.480 75.520 54.355 75.395 54.355 75.520 V 78.575 C 54.355 78.644 54.411 78.700 54.480 78.700 H 63.580 H 66.760 C 66.829 78.700 66.885 78.644 66.885 78.575 V 75.395 V 66.295 C 66.885 66.226 66.829 66.170 66.760 66.170 H 63.705 C 63.580 66.170 63.705 66.295 63.705 66.170 V 60.060 C 63.705 59.935 63.580 60.060 63.705 60.060 H 66.760 C 66.829 60.060 66.885 60.004 66.885 59.935 V 53.575 C 66.885 53.506 66.829 53.450 66.760 53.450 H 63.705 C 63.580 53.450 63.705 53.575 63.705 53.450 V 47.340 C 63.705 47.215 63.580 47.340 63.705 47.340 H 66.760 C 66.829 47.340 66.885 47.284 66.885 47.215 V 40.855 C 66.885 40.786 66.829 40.730 66.760 40.730 H 63.705 C 63.580 40.730 63.705 40.855 63.705 40.730 V 34.620 C 63.705 34.495 63.580 34.620 63.705 34.620 H 66.760 C 66.829 34.620 66.885 34.564 66.885 34.495 V 25.395 V 22.215 C 66.885 22.146 66.829 22.090 66.760 22.090 H 63.580 H 54.480 C 54.411 22.090 54.355 22.146 54.355 22.215 V 25.270 C 54.355 25.395 54.480 25.270 54.355 25.270 H 48.245 C 48.120 25.270 48.245 25.395 48.245 25.270 V 22.215 C 48.245 22.146 48.189 22.090 48.120 22.090 H 41.760 C 41.691 22.090 41.635 22.146 41.635 22.215 V 25.270 C 41.635 25.395 41.760 25.270 41.635 25.270 H 35.525 C 35.400 25.270 35.525 25.395 35.525 25.270 V 22.215 C 35.525 22.146 35.469 22.090 35.400 22.090 H 29.040 C 28.971 22.090 28.915 22.146 28.915 22.215 V 25.270 C 28.915 25.395 29.040 25.270 28.915 25.270 H 22.805 C 22.680 25.270 22.805 25.395 22.805 25.270 V 22.215 C 22.805 22.146 22.749 22.090 22.680 22.090 H 13.580 H 10.400 C 10.331 22.090 10.275 22.146 10.275 22.215 V 25.395 V 34.495 C 10.275 34.564 10.331 34.620 10.400 34.620 H 13.455 C 13.580 34.620 13.455 34.495 13.455 34.620 V 40.730 C 13.455 40.855 13.580 40.730 13.455 40.730 H 10.400 C 10.331 40.730 10.275 40.786 10.275 40.855 V 47.215 C 10.275 47.284 10.331 47.340 10.400 47.340 H 13.455 C 13.580 47.340 13.455 47.215 13.455 47.340 V 53.450 C 13.455 53.575 13.580 53.450 13.455 53.450 H 10.400 C 10.331 53.450 10.275 53.506 10.275 53.575 V 59.935 C 10.275 60.004 10.331 60.060 10.400 60.060 H 13.455 C 13.580 60.060 13.455 59.935 13.455 60.060 V 66.170 C 13.455 66.295 13.580 66.170 13.455 66.170 H 10.400 C 10.331 66.170 10.275 66.226 10.275 66.295 V 75.395 V 78.575 C 10.275 78.644 10.331 78.700 10.400 78.700 H 13.580" stroke="rgb(0,0,0)" stroke-width="0.25" />
</g>
<g id="p-6" style="fill:none;stroke-linecap:round;stroke-linejoin:round;">
  <text transform="matrix( 1.000 0.000 0.000 1.000 93.600 51.700 )" style="font-family: sans-serif ; font-weight: normal; font-style: normal; fill: rgb(255,0,0)" font-size="4px" text-anchor="middle" dominant-baseline="hanging">Top</text><path d="M 68.600 78.700 H 118.600 C 118.669 78.700 118.725 78.644 118.725 78.575 V 28.575 C 118.725 28.506 118.669 28.450 118.600 28.450 H 68.600 C 68.531 28.450 68.475 28.506 68.475 28.575 V 78.575 C 68.475 78.644 68.531 78.700 68.600 78.700" stroke="rgb(0,0,0)" stroke-width="0.25" />
</g>
<g id="p-7" style="fill:none;stroke-linecap:round;stroke-linejoin:round;">
  <path d="M 76.984 23.680 H 78.679 C 78.804 23.680 78.679 23.555 78.679 23.680 V 26.735 C 78.679 26.804 78.735 26.860 78.804 26.860 H 85.164 C 85.233 26.860 85.289 26.804 85.289 26.735 V 23.680 C 85.289 23.555 85.164 23.680 85.289 23.680 H 86.984 C 87.053 23.680 87.109 23.624 87.109 23.555 V 21.860 C 87.109 21.735 86.984 21.860 87.109 21.860 H 90.164 C 90.233 21.860 90.289 21.804 90.289 21.735 V 15.375 C 90.289 15.306 90.233 15.250 90.164 15.250 H 87.109 C 86.984 15.250 87.109 15.375 87.109 15.250 V 13.555 C 87.109 13.486 87.053 13.430 86.984 13.430 C 86.951 13.430 86.919 13.443 86.896 13.467 L 76.896 23.467 C 76.872 23.490 76.859 23.522 76.859 23.555 C 76.859 23.624 76.915 23.680 76.984 23.680 Z" stroke="rgb(0,0,0)" stroke-width="0.25" />
  <path d="M 81.780 13.180 H 80.085 C 79.960 13.180 80.085 13.305 80.085 13.180 V 10.125 C 80.085 10.056 80.029 10.000 79.960 10.000 H 73.600 C 73.531 10.000 73.475 10.056 73.475 10.125 V 13.180 C 73.475 13.305 73.600 13.180 73.475 13.180 H 71.780 C 71.711 13.180 71.655 13.236 71.655 13.305 V 15.000 C 71.655 15.125 71.780 15.000 71.655 15.000 H 68.600 C 68.531 15.000 68.475 15.056 68.475 15.125 V 21.485 C 68.475 21.554 68.531 21.610 68.600 21.610 H 71.655 C 71.780 21.610 71.655 21.485 71.655 21.610 V 23.305 C 71.655 23.374 71.711 23.430 71.780 23.430 C 71.813 23.430 71.845 23.417 71.868 23.393 L 81.868 13.393 C 81.892 13.370 81.905 13.338 81.905 13.305 C 81.905 13.236 81.849 13.180 81.780 13.180 Z" stroke="rgb(0,0,0)" stroke-width="0.25" />
  <path d="M 100.389 23.680 H 102.084 C 102.209 23.680 102.084 23.555 102.084 23.680 V 26.735 C 102.084 26.804 102.140 26.860 102.209 26.860 H 108.569 C 108.638 26.860 108.694 26.804 108.694 26.735 V 23.680 C 108.694 23.555 108.569 23.680 108.694 23.680 H 110.389 C 110.458 23.680 110.514 23.624 110.514 23.555 V 21.860 C 110.514 21.735 110.389 21.860 110.514 21.860 H 113.569 C 113.638 21.860 113.694 21.804 113.694 21.735 V 15.375 C 113.694 15.306 113.638 15.250 113.569 15.250 H 110.514 C 110.389 15.250 110.514 15.375 110.514 15.250 V 13.555 C 110.514 13.486 110.458 13.430 110.389 13.430 C 110.355 13.430 110.324 13.443 110.300 13.467 L 100.300 23.467 C 100.277 23.490 100.264 23.522 100.264 23.555 C 100.264 23.624 100.320 23.680 100.389 23.680 Z" stroke="rgb(0,0,0)" stroke-width="0.25" />
  <path d="M 105.184 13.180 H 103.489 C 103.364 13.180 103.489 13.305 103.489 13.180 V 10.125 C 103.489 10.056 103.433 10.000 103.364 10.000 H 97.004 C 96.935 10.000 96.879 10.056 96.879 10.125 V 13.180 C 96.879 13.305 97.004 13.180 96.879 13.180 H 95.184 C 95.115 13.180 95.059 13.236 95.059 13.305 V 15.000 C 95.059 15.125 95.184 15.000 95.059 15.000 H 92.004 C 91.935 15.000 91.879 15.056 91.879 15.125 V 21.485 C 91.879 21.554 91.935 21.610 92.004 21.610 H 95.059 C 95.184 21.610 95.059 21.485 95.059 21.610 V 23.305 C 95.059 23.374 95.115 23.430 95.184 23.430 C 95.217 23.430 95.249 23.417 95.273 23.393 L 105.273 13.393 C 105.296 13.370 105.309 13.338 105.309 13.305 C 105.309 13.236 105.253 13.180 105.184 13.180 Z" stroke="rgb(0,0,0)" stroke-width="0.25" />
</g>
</svg>