<?xml version='1.0' encoding='utf-8'?>
<svg width="141.34mm" height="170.93mm" viewBox="0.0 0.0 141.34 170.93" xmlns="http://www.w3.org/2000/svg" xmlns:dc="http://purl.org/dc/elements/1.1/" xmlns:cc="http://creativecommons.org/ns#" xmlns:rdf="http://www.w3.org/1999/02/22-rdf-syntax-ns#" xmlns:svg="http://www.w3.org/2000/svg" xmlns:xlink="http://www.w3.org/1999/xlink" xmlns:inkscape="http://www.inkscape.org/namespaces/inkscape">
<!--
BasedBox - Fully closed box on a base


This box is more of a building block than a finished item.
Use a vector graphics program (like Inkscape) to add holes or adjust the base
plate. The width of the "brim" can also be adjusted with the **edge_width**
 parameter in the **Finger Joints Settings**.
 
See ClosedBox for variant without a base.



Created with Boxes.py (https://festi.info/boxes.py)
Creation date: 2023-03-15 20:02:57
Command line (remove spaces between dashes): boxes BasedBox - -x=50 - -y=50 - -h=30 - -outside=0 - -thickness=3.18 - -labels=0 - -burn=0.09
Url: http://www.festi.info/boxes.py/BasedBox?FingerJoint_angle=90.0&FingerJoint_style=rectangular&FingerJoint_surroundingspaces=2.0&FingerJoint_bottom_lip=0.0&FingerJoint_edge_width=1.0&FingerJoint_extra_length=0.0&FingerJoint_finger=2.0&FingerJoint_play=0.0&FingerJoint_space=2.0&FingerJoint_width=1.0&x=50&y=50&h=30&outside=0&thickness=3.18&format=svg&tabs=0.0&qr_code=0&debug=0&labels=0&reference=100&inner_corners=loop&burn=0.09&language=en&render=2
Url short: http://www.festi.info/boxes.py/BasedBox?x=50&y=50&h=30&outside=0&thickness=3.18&labels=0&burn=0.09
SettingsUrl: http://www.festi.info/boxes.py/BasedBox?FingerJoint_angle=90.0&FingerJoint_style=rectangular&FingerJoint_surroundingspaces=2.0&FingerJoint_bottom_lip=0.0&FingerJoint_edge_width=1.0&FingerJoint_extra_length=0.0&FingerJoint_finger=2.0&FingerJoint_play=0.0&FingerJoint_space=2.0&FingerJoint_width=1.0&x=50&y=50&h=30&outside=0&thickness=3.18&format=svg&tabs=0.0&qr_code=0&debug=0&labels=0&reference=100&inner_corners=loop&burn=0.09&language=en&render=2
SettingsUrl short: http://www.festi.info/boxes.py/BasedBox?x=50&y=50&h=30&outside=0&thickness=3.18&labels=0&burn=0.09
-->
<title>BasedBox</title>
<metadata>
<rdf:RDF><cc:Work>
<dc:title>Box - BasedBox</dc:title>
<dc:date>2023-03-15 20:02:57</dc:date>
<dc:source>http://www.festi.info/boxes.py/BasedBox?FingerJoint_angle=90.0&amp;FingerJoint_style=rectangular&amp;FingerJoint_surroundingspaces=2.0&amp;FingerJoint_bottom_lip=0.0&amp;FingerJoint_edge_width=1.0&amp;FingerJoint_extra_length=0.0&amp;FingerJoint_finger=2.0&amp;FingerJoint_play=0.0&amp;FingerJoint_space=2.0&amp;FingerJoint_width=1.0&amp;x=50&amp;y=50&amp;h=30&amp;outside=0&amp;thickness=3.18&amp;format=svg&amp;tabs=0.0&amp;qr_code=0&amp;debug=0&amp;labels=0&amp;reference=100&amp;inner_corners=loop&amp;burn=0.09&amp;language=en&amp;render=2</dc:source>
<dc:source>http://www.festi.info/boxes.py/BasedBox?x=50&amp;y=50&amp;h=30&amp;outside=0&amp;thickness=3.18&amp;labels=0&amp;burn=0.09</dc:source>
<dc:description>Fully closed box on a base

This box is more of a building block than a finished item.
Use a vector graphics program (like Inkscape) to add holes or adjust the base
plate. The width of the "brim" can also be adjusted with the **edge_width**
 parameter in the **Finger Joints Settings**.
 
See ClosedBox for variant without a base.


Created with Boxes.py (https://festi.info/boxes.py)
Command line: boxes BasedBox --FingerJoint_angle=90.0 --FingerJoint_style=rectangular --FingerJoint_surroundingspaces=2.0 --FingerJoint_bottom_lip=0.0 --FingerJoint_edge_width=1.0 --FingerJoint_extra_length=0.0 --FingerJoint_finger=2.0 --FingerJoint_play=0.0 --FingerJoint_space=2.0 --FingerJoint_width=1.0 --x=50 --y=50 --h=30 --outside=0 --thickness=3.18 --format=svg --tabs=0.0 --qr_code=0 --debug=0 --labels=0 --reference=100 --inner_corners=loop --burn=0.09
Command line short: boxes BasedBox --x=50 --y=50 --h=30 --outside=0 --thickness=3.18 --labels=0 --burn=0.09
Url: http://www.festi.info/boxes.py/BasedBox?FingerJoint_angle=90.0&amp;FingerJoint_style=rectangular&amp;FingerJoint_surroundingspaces=2.0&amp;FingerJoint_bottom_lip=0.0&amp;FingerJoint_edge_width=1.0&amp;FingerJoint_extra_length=0.0&amp;FingerJoint_finger=2.0&amp;FingerJoint_play=0.0&amp;FingerJoint_space=2.0&amp;FingerJoint_width=1.0&amp;x=50&amp;y=50&amp;h=30&amp;outside=0&amp;thickness=3.18&amp;format=svg&amp;tabs=0.0&amp;qr_code=0&amp;debug=0&amp;labels=0&amp;reference=100&amp;inner_corners=loop&amp;burn=0.09&amp;language=en&amp;render=2
Url short: http://www.festi.info/boxes.py/BasedBox?x=50&amp;y=50&amp;h=30&amp;outside=0&amp;thickness=3.18&amp;labels=0&amp;burn=0.09
SettingsUrl: http://www.festi.info/boxes.py/BasedBox?FingerJoint_angle=90.0&amp;FingerJoint_style=rectangular&amp;FingerJoint_surroundingspaces=2.0&amp;FingerJoint_bottom_lip=0.0&amp;FingerJoint_edge_width=1.0&amp;FingerJoint_extra_length=0.0&amp;FingerJoint_finger=2.0&amp;FingerJoint_play=0.0&amp;FingerJoint_space=2.0&amp;FingerJoint_width=1.0&amp;x=50&amp;y=50&amp;h=30&amp;outside=0&amp;thickness=3.18&amp;format=svg&amp;tabs=0.0&amp;qr_code=0&amp;debug=0&amp;labels=0&amp;reference=100&amp;inner_corners=loop&amp;burn=0.09&amp;language=en&amp;render=2
SettingsUrl short: http://www.festi.info/boxes.py/BasedBox?x=50&amp;y=50&amp;h=30&amp;outside=0&amp;thickness=3.18&amp;labels=0&amp;burn=0.09
</dc:description>
</cc:Work></rdf:RDF></metadata>
<g id="p-0" style="fill:none;stroke-linecap:round;stroke-linejoin:round;">
  <path d="M 10.400 160.930 H 110.400 V 150.930 H 10.400 V 160.930 Z" stroke="rgb(0,0,0)" stroke-width="0.18" />
  <text transform="matrix( 1.000 0.000 0.000 1.000 60.400 151.930 )" style="font-family: sans-serif ; font-weight: normal; font-style: normal; fill: rgb(255,0,0)" font-size="8px" text-anchor="middle" dominant-baseline="hanging">100mm, burn:0.09mm</text>
</g>
<g id="p-1" style="fill:none;stroke-linecap:round;stroke-linejoin:round;">
  <path d="M 13.580 145.980 H 22.590 C 22.680 145.980 22.590 145.890 22.590 145.980 V 149.070 C 22.590 149.120 22.630 149.160 22.680 149.160 H 29.040 C 29.090 149.160 29.130 149.120 29.130 149.070 V 145.980 C 29.130 145.890 29.040 145.980 29.130 145.980 H 35.310 C 35.400 145.980 35.310 145.890 35.310 145.980 V 149.070 C 35.310 149.120 35.350 149.160 35.400 149.160 H 41.760 C 41.810 149.160 41.850 149.120 41.850 149.070 V 145.980 C 41.850 145.890 41.760 145.980 41.850 145.980 H 48.030 C 48.120 145.980 48.030 145.890 48.030 145.980 V 149.070 C 48.030 149.120 48.070 149.160 48.120 149.160 H 54.480 C 54.530 149.160 54.570 149.120 54.570 149.070 V 145.980 C 54.570 145.890 54.480 145.980 54.570 145.980 H 63.580 H 66.760 C 66.810 145.980 66.850 145.940 66.850 145.890 V 134.070 C 66.850 134.020 66.810 133.980 66.760 133.980 H 63.670 C 63.580 133.980 63.670 134.070 63.670 133.980 V 127.800 C 63.670 127.710 63.580 127.800 63.670 127.800 H 66.760 C 66.810 127.800 66.850 127.760 66.850 127.710 V 115.890 V 112.710 C 66.850 112.660 66.810 112.620 66.760 112.620 H 63.580 H 54.480 C 54.430 112.620 54.390 112.660 54.390 112.710 V 115.800 C 54.390 115.890 54.480 115.800 54.390 115.800 H 48.210 C 48.120 115.800 48.210 115.890 48.210 115.800 V 112.710 C 48.210 112.660 48.170 112.620 48.120 112.620 H 41.760 C 41.710 112.620 41.670 112.660 41.670 112.710 V 115.800 C 41.670 115.890 41.760 115.800 41.670 115.800 H 35.490 C 35.400 115.800 35.490 115.890 35.490 115.800 V 112.710 C 35.490 112.660 35.450 112.620 35.400 112.620 H 29.040 C 28.990 112.620 28.950 112.660 28.950 112.710 V 115.800 C 28.950 115.890 29.040 115.800 28.950 115.800 H 22.770 C 22.680 115.800 22.770 115.890 22.770 115.800 V 112.710 C 22.770 112.660 22.730 112.620 22.680 112.620 H 13.580 H 10.400 C 10.350 112.620 10.310 112.660 10.310 112.710 V 115.890 V 127.710 C 10.310 127.760 10.350 127.800 10.400 127.800 H 13.490 C 13.580 127.800 13.490 127.710 13.490 127.800 V 133.980 C 13.490 134.070 13.580 133.980 13.490 133.980 H 10.400 C 10.350 133.980 10.310 134.020 10.310 134.070 V 145.890 C 10.310 145.940 10.350 145.980 10.400 145.980 H 13.580 Z" stroke="rgb(0,0,0)" stroke-width="0.18" />
</g>
<g id="p-2" style="fill:none;stroke-linecap:round;stroke-linejoin:round;">
  <path d="M 71.710 145.980 H 80.720 C 80.810 145.980 80.720 145.890 80.720 145.980 V 149.070 C 80.720 149.120 80.760 149.160 80.810 149.160 H 87.170 C 87.220 149.160 87.260 149.120 87.260 149.070 V 145.980 C 87.260 145.890 87.170 145.980 87.260 145.980 H 93.440 C 93.530 145.980 93.440 145.890 93.440 145.980 V 149.070 C 93.440 149.120 93.480 149.160 93.530 149.160 H 99.890 C 99.940 149.160 99.980 149.120 99.980 149.070 V 145.980 C 99.980 145.890 99.890 145.980 99.980 145.980 H 106.160 C 106.250 145.980 106.160 145.890 106.160 145.980 V 149.070 C 106.160 149.120 106.200 149.160 106.250 149.160 H 112.610 C 112.660 149.160 112.700 149.120 112.700 149.070 V 145.980 C 112.700 145.890 112.610 145.980 112.700 145.980 H 121.710 C 121.760 145.980 121.800 145.940 121.800 145.890 V 134.160 C 121.800 134.070 121.710 134.160 121.800 134.160 H 124.890 C 124.940 134.160 124.980 134.120 124.980 134.070 V 127.710 C 124.980 127.660 124.940 127.620 124.890 127.620 H 121.800 C 121.710 127.620 121.800 127.710 121.800 127.620 V 115.890 V 112.710 C 121.800 112.660 121.760 112.620 121.710 112.620 H 112.610 C 112.560 112.620 112.520 112.660 112.520 112.710 V 115.800 C 112.520 115.890 112.610 115.800 112.520 115.800 H 106.340 C 106.250 115.800 106.340 115.890 106.340 115.800 V 112.710 C 106.340 112.660 106.300 112.620 106.250 112.620 H 99.890 C 99.840 112.620 99.800 112.660 99.800 112.710 V 115.800 C 99.800 115.890 99.890 115.800 99.800 115.800 H 93.620 C 93.530 115.800 93.620 115.890 93.620 115.800 V 112.710 C 93.620 112.660 93.580 112.620 93.530 112.620 H 87.170 C 87.120 112.620 87.080 112.660 87.080 112.710 V 115.800 C 87.080 115.890 87.170 115.800 87.080 115.800 H 80.900 C 80.810 115.800 80.900 115.890 80.900 115.800 V 112.710 C 80.900 112.660 80.860 112.620 80.810 112.620 H 71.710 C 71.660 112.620 71.620 112.660 71.620 112.710 V 115.890 V 127.620 C 71.620 127.710 71.710 127.620 71.620 127.620 H 68.530 C 68.480 127.620 68.440 127.660 68.440 127.710 V 134.070 C 68.440 134.120 68.480 134.160 68.530 134.160 H 71.620 C 71.710 134.160 71.620 134.070 71.620 134.160 V 145.890 C 71.620 145.940 71.660 145.980 71.710 145.980 Z" stroke="rgb(0,0,0)" stroke-width="0.18" />
</g>
<g id="p-3" style="fill:none;stroke-linecap:round;stroke-linejoin:round;">
  <path d="M 71.710 107.850 H 80.720 C 80.810 107.850 80.720 107.760 80.720 107.850 V 110.940 C 80.720 110.990 80.760 111.030 80.810 111.030 H 87.170 C 87.220 111.030 87.260 110.990 87.260 110.940 V 107.850 C 87.260 107.760 87.170 107.850 87.260 107.850 H 93.440 C 93.530 107.850 93.440 107.760 93.440 107.850 V 110.940 C 93.440 110.990 93.480 111.030 93.530 111.030 H 99.890 C 99.940 111.030 99.980 110.990 99.980 110.940 V 107.850 C 99.980 107.760 99.890 107.850 99.980 107.850 H 106.160 C 106.250 107.850 106.160 107.760 106.160 107.850 V 110.940 C 106.160 110.990 106.200 111.030 106.250 111.030 H 112.610 C 112.660 111.030 112.700 110.990 112.700 110.940 V 107.850 C 112.700 107.760 112.610 107.850 112.700 107.850 H 121.710 C 121.760 107.850 121.800 107.810 121.800 107.760 V 96.030 C 121.800 95.940 121.710 96.030 121.800 96.030 H 124.890 C 124.940 96.030 124.980 95.990 124.980 95.940 V 89.580 C 124.980 89.530 124.940 89.490 124.890 89.490 H 121.800 C 121.710 89.490 121.800 89.580 121.800 89.490 V 77.760 V 74.580 C 121.800 74.530 121.760 74.490 121.710 74.490 H 112.610 C 112.560 74.490 112.520 74.530 112.520 74.580 V 77.670 C 112.520 77.760 112.610 77.670 112.520 77.670 H 106.340 C 106.250 77.670 106.340 77.760 106.340 77.670 V 74.580 C 106.340 74.530 106.300 74.490 106.250 74.490 H 99.890 C 99.840 74.490 99.800 74.530 99.800 74.580 V 77.670 C 99.800 77.760 99.890 77.670 99.800 77.670 H 93.620 C 93.530 77.670 93.620 77.760 93.620 77.670 V 74.580 C 93.620 74.530 93.580 74.490 93.530 74.490 H 87.170 C 87.120 74.490 87.080 74.530 87.080 74.580 V 77.670 C 87.080 77.760 87.170 77.670 87.080 77.670 H 80.900 C 80.810 77.670 80.900 77.760 80.900 77.670 V 74.580 C 80.900 74.530 80.860 74.490 80.810 74.490 H 71.710 C 71.660 74.490 71.620 74.530 71.620 74.580 V 77.760 V 89.490 C 71.620 89.580 71.710 89.490 71.620 89.490 H 68.530 C 68.480 89.490 68.440 89.530 68.440 89.580 V 95.940 C 68.440 95.990 68.480 96.030 68.530 96.030 H 71.620 C 71.710 96.030 71.620 95.940 71.620 96.030 V 107.760 C 71.620 107.810 71.660 107.850 71.710 107.850 Z" stroke="rgb(0,0,0)" stroke-width="0.18" />
</g>
<g id="p-4" style="fill:none;stroke-linecap:round;stroke-linejoin:round;">
  <path d="M 13.580 107.850 H 22.590 C 22.680 107.850 22.590 107.760 22.590 107.850 V 110.940 C 22.590 110.990 22.630 111.030 22.680 111.030 H 29.040 C 29.090 111.030 29.130 110.990 29.130 110.940 V 107.850 C 29.130 107.760 29.040 107.850 29.130 107.850 H 35.310 C 35.400 107.850 35.310 107.760 35.310 107.850 V 110.940 C 35.310 110.990 35.350 111.030 35.400 111.030 H 41.760 C 41.810 111.030 41.850 110.990 41.850 110.940 V 107.850 C 41.850 107.760 41.760 107.850 41.850 107.850 H 48.030 C 48.120 107.850 48.030 107.760 48.030 107.850 V 110.940 C 48.030 110.990 48.070 111.030 48.120 111.030 H 54.480 C 54.530 111.030 54.570 110.990 54.570 110.940 V 107.850 C 54.570 107.760 54.480 107.850 54.570 107.850 H 63.580 H 66.760 C 66.810 107.850 66.850 107.810 66.850 107.760 V 95.940 C 66.850 95.890 66.810 95.850 66.760 95.850 H 63.670 C 63.580 95.850 63.670 95.940 63.670 95.850 V 89.670 C 63.670 89.580 63.580 89.670 63.670 89.670 H 66.760 C 66.810 89.670 66.850 89.630 66.850 89.580 V 77.760 V 74.580 C 66.850 74.530 66.810 74.490 66.760 74.490 H 63.580 H 54.480 C 54.430 74.490 54.390 74.530 54.390 74.580 V 77.670 C 54.390 77.760 54.480 77.670 54.390 77.670 H 48.210 C 48.120 77.670 48.210 77.760 48.210 77.670 V 74.580 C 48.210 74.530 48.170 74.490 48.120 74.490 H 41.760 C 41.710 74.490 41.670 74.530 41.670 74.580 V 77.670 C 41.670 77.760 41.760 77.670 41.670 77.670 H 35.490 C 35.400 77.670 35.490 77.760 35.490 77.670 V 74.580 C 35.490 74.530 35.450 74.490 35.400 74.490 H 29.040 C 28.990 74.490 28.950 74.530 28.950 74.580 V 77.670 C 28.950 77.760 29.040 77.670 28.950 77.670 H 22.770 C 22.680 77.670 22.770 77.760 22.770 77.670 V 74.580 C 22.770 74.530 22.730 74.490 22.680 74.490 H 13.580 H 10.400 C 10.350 74.490 10.310 74.530 10.310 74.580 V 77.760 V 89.580 C 10.310 89.630 10.350 89.670 10.400 89.670 H 13.490 C 13.580 89.670 13.490 89.580 13.490 89.670 V 95.850 C 13.490 95.940 13.580 95.850 13.490 95.850 H 10.400 C 10.350 95.850 10.310 95.890 10.310 95.940 V 107.760 C 10.310 107.810 10.350 107.850 10.400 107.850 H 13.580 Z" stroke="rgb(0,0,0)" stroke-width="0.18" />
</g>
<g id="p-5" style="fill:none;stroke-linecap:round;stroke-linejoin:round;">
  <path d="M 13.580 69.720 H 22.590 C 22.680 69.720 22.590 69.630 22.590 69.720 V 72.810 C 22.590 72.860 22.630 72.900 22.680 72.900 H 29.040 C 29.090 72.900 29.130 72.860 29.130 72.810 V 69.720 C 29.130 69.630 29.040 69.720 29.130 69.720 H 35.310 C 35.400 69.720 35.310 69.630 35.310 69.720 V 72.810 C 35.310 72.860 35.350 72.900 35.400 72.900 H 41.760 C 41.810 72.900 41.850 72.860 41.850 72.810 V 69.720 C 41.850 69.630 41.760 69.720 41.850 69.720 H 48.030 C 48.120 69.720 48.030 69.630 48.030 69.720 V 72.810 C 48.030 72.860 48.070 72.900 48.120 72.900 H 54.480 C 54.530 72.900 54.570 72.860 54.570 72.810 V 69.720 C 54.570 69.630 54.480 69.720 54.570 69.720 H 63.580 C 63.630 69.720 63.670 69.680 63.670 69.630 V 60.620 C 63.670 60.530 63.580 60.620 63.670 60.620 H 66.760 C 66.810 60.620 66.850 60.580 66.850 60.530 V 54.170 C 66.850 54.120 66.810 54.080 66.760 54.080 H 63.670 C 63.580 54.080 63.670 54.170 63.670 54.080 V 47.900 C 63.670 47.810 63.580 47.900 63.670 47.900 H 66.760 C 66.810 47.900 66.850 47.860 66.850 47.810 V 41.450 C 66.850 41.400 66.810 41.360 66.760 41.360 H 63.670 C 63.580 41.360 63.670 41.450 63.670 41.360 V 35.180 C 63.670 35.090 63.580 35.180 63.670 35.180 H 66.760 C 66.810 35.180 66.850 35.140 66.850 35.090 V 28.730 C 66.850 28.680 66.810 28.640 66.760 28.640 H 63.670 C 63.580 28.640 63.670 28.730 63.670 28.640 V 19.630 C 63.670 19.580 63.630 19.540 63.580 19.540 H 54.570 C 54.480 19.540 54.570 19.630 54.570 19.540 V 16.450 C 54.570 16.400 54.530 16.360 54.480 16.360 H 48.120 C 48.070 16.360 48.030 16.400 48.030 16.450 V 19.540 C 48.030 19.630 48.120 19.540 48.030 19.540 H 41.850 C 41.760 19.540 41.850 19.630 41.850 19.540 V 16.450 C 41.850 16.400 41.810 16.360 41.760 16.360 H 35.400 C 35.350 16.360 35.310 16.400 35.310 16.450 V 19.540 C 35.310 19.630 35.400 19.540 35.310 19.540 H 29.130 C 29.040 19.540 29.130 19.630 29.130 19.540 V 16.450 C 29.130 16.400 29.090 16.360 29.040 16.360 H 22.680 C 22.630 16.360 22.590 16.400 22.590 16.450 V 19.540 C 22.590 19.630 22.680 19.540 22.590 19.540 H 13.580 C 13.530 19.540 13.490 19.580 13.490 19.630 V 28.640 C 13.490 28.730 13.580 28.640 13.490 28.640 H 10.400 C 10.350 28.640 10.310 28.680 10.310 28.730 V 35.090 C 10.310 35.140 10.350 35.180 10.400 35.180 H 13.490 C 13.580 35.180 13.490 35.090 13.490 35.180 V 41.360 C 13.490 41.450 13.580 41.360 13.490 41.360 H 10.400 C 10.350 41.360 10.310 41.400 10.310 41.450 V 47.810 C 10.310 47.860 10.350 47.900 10.400 47.900 H 13.490 C 13.580 47.900 13.490 47.810 13.490 47.900 V 54.080 C 13.490 54.170 13.580 54.080 13.490 54.080 H 10.400 C 10.350 54.080 10.310 54.120 10.310 54.170 V 60.530 C 10.310 60.580 10.350 60.620 10.400 60.620 H 13.490 C 13.580 60.620 13.490 60.530 13.490 60.620 V 69.630 C 13.490 69.680 13.530 69.720 13.580 69.720 Z" stroke="rgb(0,0,0)" stroke-width="0.18" />
</g>
<g id="p-6" style="fill:none;stroke-linecap:round;stroke-linejoin:round;">
  <path d="M 87.170 69.540 H 84.080 C 83.990 69.540 84.080 69.630 84.080 69.540 V 66.540 C 84.080 66.450 83.990 66.540 84.080 66.540 H 90.260 C 90.350 66.540 90.260 66.450 90.260 66.540 V 69.540 C 90.260 69.630 90.350 69.540 90.260 69.540 H 87.170 Z" stroke="rgb(0,0,255)" stroke-width="0.18" />
  <path d="M 99.890 69.540 H 96.800 C 96.710 69.540 96.800 69.630 96.800 69.540 V 66.540 C 96.800 66.450 96.710 66.540 96.800 66.540 H 102.980 C 103.070 66.540 102.980 66.450 102.980 66.540 V 69.540 C 102.980 69.630 103.070 69.540 102.980 69.540 H 99.890 Z" stroke="rgb(0,0,255)" stroke-width="0.18" />
  <path d="M 112.610 69.540 H 109.520 C 109.430 69.540 109.520 69.630 109.520 69.540 V 66.540 C 109.520 66.450 109.430 66.540 109.520 66.540 H 115.700 C 115.790 66.540 115.700 66.450 115.700 66.540 V 69.540 C 115.700 69.630 115.790 69.540 115.700 69.540 H 112.610 Z" stroke="rgb(0,0,255)" stroke-width="0.18" />
  <path d="M 74.890 72.900 H 124.890 H 131.250 C 131.300 72.900 131.340 72.860 131.340 72.810 V 66.450 V 16.450 V 10.090 C 131.340 10.040 131.300 10.000 131.250 10.000 H 124.890 H 74.890 H 68.530 C 68.480 10.000 68.440 10.040 68.440 10.090 V 16.450 V 66.450 V 72.810 C 68.440 72.860 68.480 72.900 68.530 72.900 H 74.890 Z" stroke="rgb(0,0,0)" stroke-width="0.18" />
  <path d="M 127.980 54.170 V 57.260 C 127.980 57.350 128.070 57.260 127.980 57.260 H 124.980 C 124.890 57.260 124.980 57.350 124.980 57.260 V 51.080 C 124.980 50.990 124.890 51.080 124.980 51.080 H 127.980 C 128.070 51.080 127.980 50.990 127.980 51.080 V 54.170 Z" stroke="rgb(0,0,255)" stroke-width="0.18" />
  <path d="M 127.980 41.450 V 44.540 C 127.980 44.630 128.070 44.540 127.980 44.540 H 124.980 C 124.890 44.540 124.980 44.630 124.980 44.540 V 38.360 C 124.980 38.270 124.890 38.360 124.980 38.360 H 127.980 C 128.070 38.360 127.980 38.270 127.980 38.360 V 41.450 Z" stroke="rgb(0,0,255)" stroke-width="0.18" />
  <path d="M 127.980 28.730 V 31.820 C 127.980 31.910 128.070 31.820 127.980 31.820 H 124.980 C 124.890 31.820 124.980 31.910 124.980 31.820 V 25.640 C 124.980 25.550 124.890 25.640 124.980 25.640 H 127.980 C 128.070 25.640 127.980 25.550 127.980 25.640 V 28.730 Z" stroke="rgb(0,0,255)" stroke-width="0.18" />
  <path d="M 112.610 13.360 H 115.700 C 115.790 13.360 115.700 13.270 115.700 13.360 V 16.360 C 115.700 16.450 115.790 16.360 115.700 16.360 H 109.520 C 109.430 16.360 109.520 16.450 109.520 16.360 V 13.360 C 109.520 13.270 109.430 13.360 109.520 13.360 H 112.610 Z" stroke="rgb(0,0,255)" stroke-width="0.18" />
  <path d="M 99.890 13.360 H 102.980 C 103.070 13.360 102.980 13.270 102.980 13.360 V 16.360 C 102.980 16.450 103.070 16.360 102.980 16.360 H 96.800 C 96.710 16.360 96.800 16.450 96.800 16.360 V 13.360 C 96.800 13.270 96.710 13.360 96.800 13.360 H 99.890 Z" stroke="rgb(0,0,255)" stroke-width="0.18" />
  <path d="M 87.170 13.360 H 90.260 C 90.350 13.360 90.260 13.270 90.260 13.360 V 16.360 C 90.260 16.450 90.350 16.360 90.260 16.360 H 84.080 C 83.990 16.360 84.080 16.450 84.080 16.360 V 13.360 C 84.080 13.270 83.990 13.360 84.080 13.360 H 87.170 Z" stroke="rgb(0,0,255)" stroke-width="0.18" />
  <path d="M 71.800 28.730 V 25.640 C 71.800 25.550 71.710 25.640 71.800 25.640 H 74.800 C 74.890 25.640 74.800 25.550 74.800 25.640 V 31.820 C 74.800 31.910 74.890 31.820 74.800 31.820 H 71.800 C 71.710 31.820 71.800 31.910 71.800 31.820 V 28.730 Z" stroke="rgb(0,0,255)" stroke-width="0.18" />
  <path d="M 71.800 41.450 V 38.360 C 71.800 38.270 71.710 38.360 71.800 38.360 H 74.800 C 74.890 38.360 74.800 38.270 74.800 38.360 V 44.540 C 74.800 44.630 74.890 44.540 74.800 44.540 H 71.800 C 71.710 44.540 71.800 44.630 71.800 44.540 V 41.450 Z" stroke="rgb(0,0,255)" stroke-width="0.18" />
  <path d="M 71.800 54.170 V 51.080 C 71.800 50.990 71.710 51.080 71.800 51.080 H 74.800 C 74.890 51.080 74.800 50.990 74.800 51.080 V 57.260 C 74.800 57.350 74.890 57.260 74.800 57.260 H 71.800 C 71.710 57.260 71.800 57.350 71.800 57.260 V 54.170 Z" stroke="rgb(0,0,255)" stroke-width="0.18" />
</g>
</svg>